<svg id="Layer_1" data-name="Layer 1" xmlns="http://www.w3.org/2000/svg" viewBox="0 0 512 512"><polygon points="173.87 98.67 255.67 167.2 338.13 98.67 173.87 98.67"/><path d="M415.84,181.87H94.16A48,48,0,0,0,46.23,229.8v12.33a48,48,0,0,0,47.93,47.93h66v97.73a35.58,35.58,0,0,0,35.54,35.54H316.28a35.58,35.58,0,0,0,35.54-35.54V290.06h64a48,48,0,0,0,47.93-47.93V229.8A48,48,0,0,0,415.84,181.87Zm-161.52,141H198.2V243.2h15.49v66.11h40.63Zm57.41-13.29a20.61,20.61,0,0,1-5.84,7.24,27.52,27.52,0,0,1-9.15,4.61,42,42,0,0,1-12.12,1.62,38.7,38.7,0,0,1-15.1-2.75,28.14,28.14,0,0,1-10.94-8l8.53-10.67a20.54,20.54,0,0,0,7,5.73,22.43,22.43,0,0,0,10.1,2q6.84,0,10.44-2.69t3.59-8.31a10.59,10.59,0,0,0-4.15-9q-4.16-3.13-12.57-3.14h-3.15V275h3.48q7,0,10.78-3.08A9.74,9.74,0,0,0,296.4,264c0-3.07-1-5.35-3.14-6.85a13.73,13.73,0,0,0-8.19-2.25,18.25,18.25,0,0,0-9.26,2.36,18.58,18.58,0,0,0-6.68,6.62l-9.43-10.55a18.25,18.25,0,0,1,4.49-4.65,31.31,31.31,0,0,1,6.34-3.6,39.25,39.25,0,0,1,7.69-2.35,42.92,42.92,0,0,1,8.53-.85,35.26,35.26,0,0,1,10.44,1.46,26.61,26.61,0,0,1,8.14,4,17.94,17.94,0,0,1,5.27,6.23,17.7,17.7,0,0,1,1.86,8.14,19.91,19.91,0,0,1-1,6.4,18.48,18.48,0,0,1-2.91,5.5,18,18,0,0,1-4.55,4.15,16,16,0,0,1-5.78,2.25,17.89,17.89,0,0,1,11.28,6.67,20.74,20.74,0,0,1,4.32,13.3A21.54,21.54,0,0,1,311.73,309.6Z"/></svg>