<svg id="Layer_1" data-name="Layer 1" xmlns="http://www.w3.org/2000/svg" viewBox="0 0 512 512"><path d="M483.14,178.37c0-20.33-8.94-35.69-24.58-42.24-4.95-2.07-12.94-3.8-35.89-5.52-50.7-5.15-161.79-5.48-166.53-5.49h-.31c-4.71,0-115.79.34-166.5,5.49-23,1.72-30.94,3.45-35.89,5.52-15.57,6.52-24.48,21.78-24.58,42l-.48,2,.64,3.16a75.76,75.76,0,0,0,1.48,10.89l27.19,133,.26,1c.68,2.47,1.48,4.92,2.35,7.28a78.18,78.18,0,0,0,7,14.55A75.64,75.64,0,0,0,85.6,370.55a77.67,77.67,0,0,0,24.19,12.67,80.42,80.42,0,0,0,10.8,2.7c1.7.31,3.43.58,5.15.8l1.26.16H385l1.27-.16c1.69-.21,3.43-.49,5-.77a80.13,80.13,0,0,0,10.91-2.71,77.7,77.7,0,0,0,24.2-12.64,75.49,75.49,0,0,0,18.29-20.46,77.64,77.64,0,0,0,7.07-14.63c.87-2.36,1.66-4.81,2.35-7.28l.19-.68L481.5,194.17A76,76,0,0,0,483,183.1l.53-2.93ZM380.21,262.55c-4.86-1.56-10-3-15.08-4.25s-10.23-2.48-15.38-3.53q-15.47-3.22-31.12-5.27a434.31,434.31,0,0,0-62.78-3.7c-10.47.21-20.91.76-31.29,1.74-2.6.24-5.18.57-7.77.85l-3.88.44-3.87.55-7.72,1.13-7.68,1.35c-2.57.41-5.1,1-7.64,1.5s-5.09,1-7.61,1.63c-5,1.27-10.09,2.39-15,3.88-3.1.83-6.17,1.75-9.21,2.71,2,.36,4.12.67,6.24.92,6.8.84,13.85,1.18,21,1.43s14.6.94,21.9,1.71,14.61,1.76,21.91,3.24a3.19,3.19,0,0,1,0,6.26c-7.3,1.48-14.6,2.44-21.91,3.24s-14.59,1.4-21.93,1.71a204.4,204.4,0,0,1-22.74-.43A107.48,107.48,0,0,1,146.81,278a56.16,56.16,0,0,1-6.17-1.6,37.57,37.57,0,0,1-6.54-2.73,24.3,24.3,0,0,1-3.46-2.21,19.87,19.87,0,0,1-3.48-3.32,17.15,17.15,0,0,1-2.82-4.87,16.73,16.73,0,0,1-1-5.77,18.32,18.32,0,0,1,.74-5.12,20.43,20.43,0,0,1,.73-2.17c.27-.65.56-1.32.86-1.92a33.82,33.82,0,0,1,4-6.14c.71-.88,1.43-1.69,2.16-2.5s1.49-1.57,2.15-2.19q2.06-2,4.15-3.95c1.41-1.28,2.86-2.53,4.3-3.78s3-2.41,4.45-3.61a129.52,129.52,0,0,1,19.22-12.51,97,97,0,0,1,10.47-4.79c.9-.35,1.81-.68,2.72-1s1.83-.62,2.76-.91,1.87-.53,2.81-.78,1.87-.46,3-.67a3.66,3.66,0,0,1,2.7,6.65l-.33.22-2.1,1.37L186,215.2c-.73.48-1.45,1-2.16,1.51s-1.43,1-2.13,1.56c-1.43,1-2.81,2.12-4.22,3.15l-2.07,1.64c-.69.53-1.38,1.07-2,1.64q-8.18,6.63-15.72,13.88c-1.25,1.17-2.48,2.38-3.69,3.59,1.64-.39,3.27-.77,4.92-1.13,5.3-1.3,10.69-2.22,16-3.28,2.68-.5,5.38-.87,8.07-1.31s5.38-.87,8.09-1.17l8.09-1,8.12-.77,4.06-.37,4.06-.26c2.71-.16,5.42-.36,8.13-.48,10.84-.47,21.67-.49,32.48-.16a444.43,444.43,0,0,1,64.27,7q15.87,2.92,31.49,7c5.21,1.34,10.38,2.83,15.53,4.39s10.21,3.24,15.39,5.2Z"/></svg>