<svg id="Layer_1" data-name="Layer 1" xmlns="http://www.w3.org/2000/svg" viewBox="0 0 512 512"><defs><style>.cls-1{fill:none;stroke:#000;stroke-miterlimit:10;stroke-width:10px;}</style></defs><path class="cls-1" d="M16.08,182.62l-.94-4.69.73-3.05c.46-23.83,11.56-42,30.71-50,6-2.52,14.6-4.44,38.86-6.27"/><path class="cls-1" d="M468.69,334.92c-.76,2.72-1.63,5.41-2.59,8a88.62,88.62,0,0,1-8,16.46,85.15,85.15,0,0,1-20.7,23.12,87.43,87.43,0,0,1-27.27,14.27,91.6,91.6,0,0,1-12.14,3c-1.77.33-3.66.62-5.5.85"/><path d="M143.09,82.27l-8.16,13,125.79,89.38L387.54,95.24l-9.18-13c-32,27.76-73,44.42-117.64,44.42S175.11,110,143.09,82.27Z"/><path d="M483.14,178.37c0-20.33-8.94-35.69-24.58-42.24-4.95-2.07-12.94-3.8-35.89-5.52-12.11-1.23-28.72-2.29-49.35-3.14h-.19l-14.16,9L260.6,205.78l-98-69.66-13.81-9h-.38c-25.21.91-45.07,2.09-59,3.51-23,1.72-30.94,3.45-35.89,5.52-15.57,6.52-24.48,21.78-24.58,42l-.48,2,.64,3.16a76,76,0,0,0,1.48,10.89l27.19,133,.26,1c.68,2.47,1.48,4.92,2.35,7.28a78.18,78.18,0,0,0,7,14.55A75.64,75.64,0,0,0,85.6,370.55a77.67,77.67,0,0,0,24.19,12.67,80.42,80.42,0,0,0,10.8,2.7c1.7.31,3.43.58,5.15.8l1.26.16H385l1.27-.16c1.69-.21,3.43-.49,5-.77a79.9,79.9,0,0,0,10.92-2.71,77.53,77.53,0,0,0,24.19-12.64,75.36,75.36,0,0,0,18.3-20.46,77.67,77.67,0,0,0,7.07-14.64c.87-2.35,1.67-4.8,2.35-7.27l.19-.68L481.5,194.17A77,77,0,0,0,483,183.1l.53-2.93Z"/></svg>