<svg id="Layer_1" data-name="Layer 1" xmlns="http://www.w3.org/2000/svg" xmlns:xlink="http://www.w3.org/1999/xlink" viewBox="0 0 4096 2160"><defs><style>.cls-1,.cls-10,.cls-11,.cls-12,.cls-14,.cls-15,.cls-17,.cls-20,.cls-3,.cls-4,.cls-5{stroke:#000;}.cls-1,.cls-10,.cls-11,.cls-12,.cls-13,.cls-14,.cls-15,.cls-16,.cls-17,.cls-18,.cls-20,.cls-3,.cls-4,.cls-5,.cls-6,.cls-7,.cls-8,.cls-9{stroke-miterlimit:10;}.cls-1,.cls-10,.cls-11,.cls-12,.cls-13,.cls-14,.cls-15,.cls-16,.cls-17,.cls-20,.cls-3,.cls-4,.cls-5,.cls-6,.cls-7,.cls-8,.cls-9{stroke-width:7px;}.cls-1{fill:url(#linear-gradient);}.cls-2{fill:url(#linear-gradient-2);}.cls-3{fill:url(#linear-gradient-3);}.cls-4{fill:url(#linear-gradient-4);}.cls-5{fill:url(#linear-gradient-5);}.cls-16,.cls-6,.cls-7,.cls-8,.cls-9{stroke:#231f20;}.cls-6{fill:url(#linear-gradient-6);}.cls-7{fill:url(#linear-gradient-7);}.cls-8{fill:url(#linear-gradient-8);}.cls-9{fill:url(#linear-gradient-9);}.cls-10{fill:url(#radial-gradient);}.cls-11{fill:url(#radial-gradient-2);}.cls-12,.cls-13,.cls-16,.cls-18{fill:none;}.cls-13{stroke:#babcbe;}.cls-14{fill:url(#linear-gradient-10);}.cls-15{fill:url(#linear-gradient-11);}.cls-17{fill:#1f1d1e;}.cls-18{stroke:#808184;stroke-width:5px;}.cls-19{fill:#b9bbbd;}.cls-20{fill:url(#linear-gradient-12);}</style><linearGradient id="linear-gradient" x1="1079.32" y1="1095.15" x2="3016.68" y2="1095.15" gradientUnits="userSpaceOnUse"><stop offset="0" stop-color="#050505"/><stop offset="0.22" stop-color="#0d0d0d"/><stop offset="0.52" stop-color="#111"/><stop offset="0.8" stop-color="#0c0c0c"/><stop offset="1" stop-color="#050505"/></linearGradient><linearGradient id="linear-gradient-2" x1="1568.14" y1="686.23" x2="2495.81" y2="686.23" gradientUnits="userSpaceOnUse"><stop offset="0" stop-color="#0090c5"/><stop offset="0.03" stop-color="#047da9"/><stop offset="0.08" stop-color="#0a5e7d"/><stop offset="0.12" stop-color="#104559"/><stop offset="0.17" stop-color="#14323d"/><stop offset="0.22" stop-color="#172429"/><stop offset="0.27" stop-color="#181c1d"/><stop offset="0.32" stop-color="#191919"/><stop offset="0.8" stop-color="#191919"/><stop offset="0.83" stop-color="#181c1e"/><stop offset="0.86" stop-color="#16262b"/><stop offset="0.89" stop-color="#133542"/><stop offset="0.92" stop-color="#0e4b61"/><stop offset="0.96" stop-color="#09678a"/><stop offset="0.99" stop-color="#0189bb"/><stop offset="1" stop-color="#0090c5"/></linearGradient><linearGradient id="linear-gradient-3" x1="1649.68" y1="674.1" x2="2446.36" y2="674.1" gradientUnits="userSpaceOnUse"><stop offset="0.01" stop-color="#cecece"/><stop offset="0.17" stop-color="#e0e0e0"/><stop offset="0.34" stop-color="#ececec"/><stop offset="0.52" stop-color="#f0f0f0"/><stop offset="0.68" stop-color="#ebebeb"/><stop offset="0.86" stop-color="#dedede"/><stop offset="1" stop-color="#cecece"/></linearGradient><linearGradient id="linear-gradient-4" x1="-258.9" y1="1103.12" x2="343.09" y2="1103.12" gradientTransform="matrix(-1, 0, 0, 1, 2760.63, 0)" xlink:href="#linear-gradient-3"/><linearGradient id="linear-gradient-5" x1="1079.32" y1="1103.12" x2="1681.31" y2="1103.12" xlink:href="#linear-gradient-3"/><linearGradient id="linear-gradient-6" x1="1372.69" y1="721.97" x2="1477.66" y2="721.97" xlink:href="#linear-gradient-3"/><linearGradient id="linear-gradient-7" x1="1372.69" y1="913.3" x2="1477.66" y2="913.3" xlink:href="#linear-gradient-3"/><linearGradient id="linear-gradient-8" x1="1264.62" y1="817.63" x2="1394.4" y2="817.63" xlink:href="#linear-gradient-3"/><linearGradient id="linear-gradient-9" x1="1455.95" y1="817.63" x2="1585.73" y2="817.63" xlink:href="#linear-gradient-3"/><radialGradient id="radial-gradient" cx="1724.45" cy="1094.15" r="115.12" gradientUnits="userSpaceOnUse"><stop offset="0.15" stop-color="#212121"/><stop offset="1" stop-color="#0f0f0f"/></radialGradient><radialGradient id="radial-gradient-2" cx="2369.53" cy="1093.15" r="115.12" xlink:href="#radial-gradient"/><linearGradient id="linear-gradient-10" x1="1306.92" y1="490.46" x2="1563.57" y2="490.46" gradientUnits="userSpaceOnUse"><stop offset="0" stop-color="#080808"/><stop offset="0.17" stop-color="#0d0d0d"/><stop offset="0.52" stop-color="#111"/><stop offset="0.85" stop-color="#0c0c0c"/><stop offset="1" stop-color="#080808"/></linearGradient><linearGradient id="linear-gradient-11" x1="2530.99" y1="490.46" x2="2787.64" y2="490.46" xlink:href="#linear-gradient-10"/><linearGradient id="linear-gradient-12" x1="1642.91" y1="1292.82" x2="2453.09" y2="1292.82" xlink:href="#linear-gradient"/></defs><path class="cls-1" d="M2821.66,546.32c-61.38-43.08-278-60.4-293.8-59.34s-32.05,9.49-32.05,9.49c-22.55-7.12-83.07-16.61-83.07-16.61C2376,466.8,2048,458.49,2048,458.49s-328,8.31-364.74,21.37c0,0-60.52,9.49-83.07,16.61,0,0-16.22-8.44-32-9.49s-232.42,16.26-293.8,59.34c-51.56,48.66-377.93,940-52.35,1171,0,0,8.31,4.48,26.5,0l109.46,14.5s29.53,0,136.14-322.38c0,0,30.93-107.9,148.82-123.73,0,0,55.78,14.25,87.83,14.25l317.26-2.38,317.26,2.38c32,0,87.83-14.25,87.83-14.25,117.89,15.83,148.82,123.73,148.82,123.73,106.61,322.38,136.14,322.38,136.14,322.38l109.46-14.5c18.19,4.48,26.5,0,26.5,0C3199.59,1486.27,2873.22,595,2821.66,546.32Z"/><path class="cls-2" d="M1679.49,800s21.67,103.77,114.92,114l494.93-.67s117.8-25.37,124.84-113.34l81.63-303.49c-22.55-7.12-83.07-16.61-83.07-16.61C2376,466.8,2048,458.49,2048,458.49s-328,8.31-364.74,21.37c0,0-60.52,9.49-83.07,16.61,0,0-16.22-8.44-32-9.49"/><path class="cls-3" d="M2446.36,528.91l-.06-.3c.6-17-2.64-40.77-23.6-49.54-7.28-3.05-28.57-5.62-57.54-7.79-96.28-9.84-316.91-10.41-316.91-10.41h-.45s-220.63.57-316.91,10.41c-29,2.17-50.27,4.74-57.54,7.79-21,8.77-24.2,32.57-23.6,49.54,0,.1,0,.2-.07.3l.1.48a105.85,105.85,0,0,0,2.21,17.72l52.22,255.56q1.63,5.87,3.63,11.19A112,112,0,0,0,1718,834.93a106.93,106.93,0,0,0,26,29.1,110.63,110.63,0,0,0,34.7,18.12,119.88,119.88,0,0,0,15.93,4c2.53.46,5.11.87,7.78,1.21h491.27c2.66-.34,5.25-.75,7.78-1.21a119.88,119.88,0,0,0,15.93-4,110.63,110.63,0,0,0,34.7-18.12,106.74,106.74,0,0,0,26-29.1,111.54,111.54,0,0,0,10.17-21.07c1.32-3.55,2.54-7.28,3.63-11.19l52.22-255.56a105.85,105.85,0,0,0,2.21-17.72Z"/><path class="cls-4" d="M2423.64,761l47-224.18c1-24.26,28.06-40.35,28.06-40.35s16.22-8.44,32-9.49,232.43,16.26,293.8,59.34c51.56,48.66,377.93,940,52.35,1171,0,0-8.31,4.48-26.5,0-19-20-23.72-31.65-34.79-72.27s-67-214.15-67-214.15C2671,1231,2671,1252.6,2628.83,1158.71S2461.85,915.84,2451.6,905C2398.07,848.41,2423.64,761,2423.64,761Z"/><path class="cls-5" d="M1675.2,761l-47-224.18c-1-24.26-28.06-40.35-28.06-40.35s-16.22-8.44-32-9.49-232.42,16.26-293.8,59.34c-51.56,48.66-377.93,940-52.35,1171,0,0,8.31,4.48,26.5,0,19-20,23.72-31.65,34.8-72.27s67-214.15,67-214.15c77.54-199.91,77.54-178.29,119.74-272.18S1637,915.84,1647.24,905C1700.78,848.41,1675.2,761,1675.2,761Z"/><path class="cls-6" d="M1449.18,658.32s-11.48-1.24-24-1.24-24,1.24-24,1.24-26.51,1.17-28.49,23.66l1.59,48.59a24.8,24.8,0,0,0,5.44,14.73l35,38.58a6.74,6.74,0,0,0,4.16,2.45,40.6,40.6,0,0,0,6.35.53,41.32,41.32,0,0,0,7.07-.67,4.91,4.91,0,0,0,3-1.79l34.52-38a28.88,28.88,0,0,0,6.33-17.17l1.55-47.22C1475.15,659.49,1449.18,658.32,1449.18,658.32Z"/><path class="cls-7" d="M1401.18,976.94s11.47,1.25,24,1.25,24-1.25,24-1.25,26.5-1.17,28.48-23.65l-1.59-48.6a24.79,24.79,0,0,0-5.43-14.73l-35-38.58a6.68,6.68,0,0,0-4.16-2.44,39.28,39.28,0,0,0-6.34-.53,41.49,41.49,0,0,0-7.08.66,5,5,0,0,0-3,1.79l-34.51,38a28.85,28.85,0,0,0-6.34,17.17l-1.55,47.23C1375.2,975.77,1401.18,976.94,1401.18,976.94Z"/><path class="cls-8" d="M1265.87,793.63s-1.25,11.48-1.25,24,1.25,24,1.25,24,1.17,26.51,23.65,28.49l48.6-1.6a24.73,24.73,0,0,0,14.73-5.43l38.58-35a6.68,6.68,0,0,0,2.44-4.16,39.42,39.42,0,0,0,.53-6.35,41.46,41.46,0,0,0-.66-7.07,5.06,5.06,0,0,0-1.79-3l-38-34.51a28.87,28.87,0,0,0-17.18-6.33l-47.22-1.55C1267,767.65,1265.87,793.63,1265.87,793.63Z"/><path class="cls-9" d="M1584.48,841.63s1.25-11.47,1.25-24-1.25-24-1.25-24-1.17-26.5-23.65-28.48l-48.6,1.59a24.79,24.79,0,0,0-14.72,5.43l-38.59,35a6.77,6.77,0,0,0-2.44,4.16,39.28,39.28,0,0,0-.53,6.34,41.21,41.21,0,0,0,.67,7.07,5,5,0,0,0,1.78,3l38,34.51a28.94,28.94,0,0,0,17.18,6.34l47.22,1.55C1583.31,867.61,1584.48,841.63,1584.48,841.63Z"/><circle class="cls-10" cx="1724.45" cy="1094.15" r="115.12"/><circle class="cls-11" cx="2369.53" cy="1093.15" r="115.12"/><circle class="cls-12" cx="2667.9" cy="672.1" r="60.53"/><circle class="cls-12" cx="2815.08" cy="819.27" r="60.53"/><circle class="cls-12" cx="2520.73" cy="819.27" r="60.53"/><polygon class="cls-13" points="2668.9 631.71 2631.85 693.69 2668.9 693.69 2705.96 693.69 2668.9 631.71"/><polygon class="cls-13" points="2520.72 787.44 2488.47 787.44 2488.47 851.13 2520.72 851.13 2552.98 851.13 2552.98 787.44 2520.72 787.44"/><circle class="cls-12" cx="2667.9" cy="966.45" r="60.53"/><line class="cls-13" x1="2637.04" y1="998.89" x2="2699.75" y2="936.19"/><line class="cls-13" x1="2699.75" y1="998.89" x2="2637.04" y2="936.19"/><circle class="cls-13" cx="2815.08" cy="819.27" r="37.58"/><path class="cls-14" d="M1306.92,530.22v-24s64.45-44.31,142-52.75,109.72,5,109.72,5a57.45,57.45,0,0,1,4.74,28.49S1402.82,497.78,1306.92,530.22Z"/><path class="cls-15" d="M2787.64,530.22v-24s-64.45-44.31-142-52.75-109.71,5-109.71,5a57.52,57.52,0,0,0-4.75,28.49S2691.74,497.78,2787.64,530.22Z"/><path class="cls-16" d="M1607.55,617.23h0l-9.67-43.31a21.52,21.52,0,0,0-1.8-8.07v0h0a21.62,21.62,0,0,0-39.59,17.37l8.73,41.78a21.42,21.42,0,0,0,1,5l0,.1h0a21.61,21.61,0,0,0,41.25-12.86Z"/><path class="cls-16" d="M2485.47,617.23h0l9.67-43.31a21.52,21.52,0,0,1,1.8-8.07v0h0a21.62,21.62,0,0,1,39.6,17.37L2527.81,625a21.43,21.43,0,0,1-1.06,5l0,.1h0a21.61,21.61,0,0,1-41.25-12.86Z"/><path class="cls-12" d="M2086.58,1188.78h-77.16a9.1,9.1,0,0,0,0,18.2h77.16a9.1,9.1,0,0,0,0-18.2Z"/><circle class="cls-12" cx="1724.45" cy="1094.15" r="69.96"/><circle class="cls-12" cx="2369.53" cy="1094.15" r="69.96"/><path class="cls-12" d="M1679.49,783s16.81,118.36,114.92,131h505.16s93.78-9.76,118-128.19"/><circle class="cls-17" cx="1974.8" cy="947.2" r="10.29"/><circle class="cls-17" cx="2009.97" cy="947.2" r="10.29"/><circle class="cls-17" cx="2048.51" cy="947.2" r="10.29"/><circle class="cls-17" cx="2083.78" cy="947.2" r="10.29"/><circle class="cls-17" cx="2119.04" cy="947.2" r="10.29"/><circle class="cls-17" cx="2102.02" cy="978.03" r="10.29"/><circle class="cls-17" cx="1992.53" cy="978.03" r="10.29"/><circle class="cls-17" cx="2028.63" cy="978.03" r="10.29"/><circle class="cls-17" cx="2065.33" cy="978.03" r="10.29"/><path class="cls-12" d="M2059.13,1055.48v21.79c15.1,6.58,21.66,0,21.66-15.46,0-15.85-1.34-18.3-17.81-24-6.48-2.19-22.76-7.4-31-8.94v88l19.44,6.17V1053c0-3.38,1.51-5.63,3.94-4.86C2058.5,1049,2059.13,1052.1,2059.13,1055.48Z"/><path class="cls-12" d="M2104.14,1105c2.24-8-6.19-16-11.57-17.77-5.74-1.92-12-2.15-32.17,1.93v12.4c8.66-2.08,17.11-3.51,19.41-3.74,2.64-.26,9.85,6.26.74,9.13l-20.15,5.61v11.29l28.39-7.62C2099,1112,2102.71,1110.05,2104.14,1105Z"/><path class="cls-12" d="M1979.14,1097.86c-2.24,8,6.19,16,11.57,17.77,5.73,1.92,12,2.15,32.17-1.94V1101.3c-8.66,2.07-17.12,3.5-19.42,3.73-2.64.27-9.85-6.26-.73-9.13l20.15-5.6V1079l-28.4,7.62C1984.32,1090.79,1980.56,1092.77,1979.14,1097.86Z"/><line class="cls-18" x1="1573.88" y1="538.05" x2="1573.88" y2="520.75"/><line class="cls-18" x1="1564.16" y1="540.2" x2="1556.07" y2="528.83"/><line class="cls-18" x1="1582.85" y1="540.2" x2="1590.56" y2="528.83"/><line class="cls-18" x1="2505.94" y1="531.38" x2="2532.87" y2="531.38"/><line class="cls-18" x1="2505.94" y1="521.21" x2="2532.87" y2="521.21"/><line class="cls-18" x1="2505.94" y1="541.55" x2="2532.87" y2="541.55"/><path class="cls-12" d="M1600.19,496.47s27,16.09,28.06,40.35l47,224.18s25.58,87.41-28,144c-10.25,10.84-135,159.82-177.23,253.71s-42.2,72.27-119.74,272.18c0,0-55.91,173.54-67,214.15s-15.78,52.22-34.8,72.27"/><path class="cls-19" d="M1425.87,956.56l12.29-17.79a1.35,1.35,0,0,0-1.28-2H1412.3a1.34,1.34,0,0,0-1.28,2l12.29,17.79A1.6,1.6,0,0,0,1425.87,956.56Z"/><path class="cls-19" d="M1423.31,682,1411,699.78a1.34,1.34,0,0,0,1.28,2h24.58a1.35,1.35,0,0,0,1.28-2L1425.87,682A1.6,1.6,0,0,0,1423.31,682Z"/><path class="cls-19" d="M1553.23,813.85l-16-13.64c-.8-.68-1.83.12-1.83,1.42v27.28c0,1.31,1,2.11,1.83,1.42l16-13.63A2,2,0,0,0,1553.23,813.85Z"/><path class="cls-19" d="M1296.12,819.06l16,13.63c.8.69,1.83-.11,1.83-1.42V804c0-1.3-1-2.1-1.83-1.42l-16,13.64A2,2,0,0,0,1296.12,819.06Z"/><path class="cls-20" d="M1642.91,1285.7s55.78,14.25,87.83,14.25l317.26-2.38,317.26,2.38c32,0,87.83-14.25,87.83-14.25"/></svg>