<svg id="Layer_1" data-name="Layer 1" xmlns="http://www.w3.org/2000/svg" viewBox="0 0 512 512"><path d="M256,86.35A169.65,169.65,0,1,0,425.65,256,169.66,169.66,0,0,0,256,86.35Zm0,320.52c-83.19,0-150.87-67.68-150.87-150.87S172.81,105.13,256,105.13,406.87,172.81,406.87,256,339.19,406.87,256,406.87Z"/><path d="M256,205.41A50.59,50.59,0,1,0,306.59,256,50.65,50.65,0,0,0,256,205.41Z"/><path d="M256,130.62A125.38,125.38,0,1,0,381.38,256,125.53,125.53,0,0,0,256,130.62ZM256,335a79,79,0,1,1,79-79A79.06,79.06,0,0,1,256,335Z"/></svg>