<svg id="Layer_1" data-name="Layer 1" xmlns="http://www.w3.org/2000/svg" viewBox="0 0 512 512"><path d="M256,86.35A169.65,169.65,0,1,0,425.65,256,169.66,169.66,0,0,0,256,86.35Zm0,320.52c-83.19,0-150.87-67.68-150.87-150.87S172.81,105.13,256,105.13,406.87,172.81,406.87,256,339.19,406.87,256,406.87Z"/><path d="M256,130.62A125.38,125.38,0,1,0,381.38,256,125.53,125.53,0,0,0,256,130.62Zm76.11,181.91L310.9,333.74,257.36,280.2l-53.54,53.54L182.6,312.53,236.15,259,182.6,205.45l21.22-21.22,53.54,53.54,53.54-53.54,21.21,21.22L278.57,259Z"/></svg>