<svg id="Layer_1" data-name="Layer 1" xmlns="http://www.w3.org/2000/svg" viewBox="0 0 512 512"><defs><style>.cls-1{fill-rule:evenodd;}.cls-2{fill:none;stroke:#000;stroke-miterlimit:10;stroke-width:10px;}</style></defs><path id="path-1" class="cls-1" d="M282.83,404.58V367.21l103.84-37c11.78-4.22,13.59-10.19,4-13.32s-26.87-2.24-38.66,2l-69.19,24.36V304.47l4-1.35s20-7.08,48.1-10.19,62.54.42,89.56,10.66c30.46,9.63,33.88,23.81,26.15,33.58s-26.71,16.73-26.71,16.73M296.26,273.53V178c0-11.23-2.07-21.56-12.6-24.49-8.07-2.58-13.07,4.91-13.07,16.12V408.94L206,388.45V103.06c27.44,5.09,67.43,17.14,88.92,24.39,54.67,18.76,73.21,42.12,73.21,94.76C368.17,273.51,336.5,293,296.26,273.53ZM87.59,363.3c-31.26-8.8-36.47-27.15-22.22-37.72,13.17-9.75,35.57-17.1,35.57-17.1l92.56-32.91v37.52l-66.61,23.84c-11.76,4.22-13.57,10.19-4,13.33s26.89,2.24,38.67-2l31.95-11.6v33.57c-2,.36-4.29.72-6.38,1.07a209.35,209.35,0,0,1-99.53-8Z"/><path class="cls-2" d="M186,403.38V392.15a231,231,0,0,1-32.25,2.28,234.05,234.05,0,0,1-72-11.43c-33.42-9.42-41.5-27.34-43.34-37.22-2.43-13,3.2-26,15.06-34.7,15.33-11.21,38.64-18.93,41.25-19.78l.5-.16L186,259.2V83.68L209.69,88c30.31,5.56,73.21,18.63,91.66,24.76l.11,0c63.21,21.4,86.71,51.8,86.71,112.14,0,21.53-4.8,37.84-12.34,49.82,19.68,1.67,38.76,5.72,55.22,11.82,23.1,7.3,37.11,18.4,41.64,33,3.29,10.57,1,21.87-6.38,31-10.7,13.31-31.44,21.31-35.49,22.78L271,430ZM131.5,357.6,290.84,170.53"/></svg>