<svg id="Layer_1" data-name="Layer 1" xmlns="http://www.w3.org/2000/svg" viewBox="0 0 4096 2160"><defs><style>.cls-1,.cls-2,.cls-3{fill:none;}.cls-1,.cls-2,.cls-3,.cls-4{stroke:#000;stroke-miterlimit:10;}.cls-1,.cls-4{stroke-width:7px;}.cls-2{stroke-width:5px;}.cls-3{stroke-width:10px;}</style></defs><path class="cls-1" d="M2821.66,546.32c-61.38-43.08-278-60.4-293.8-59.34s-32.05,9.49-32.05,9.49c-22.55-7.12-83.07-16.61-83.07-16.61C2376,466.8,2048,458.49,2048,458.49s-328,8.31-364.74,21.37c0,0-60.52,9.49-83.07,16.61,0,0-16.22-8.44-32-9.49s-232.42,16.26-293.8,59.34c-51.56,48.66-377.93,940-52.35,1171,0,0,8.31,4.48,26.5,0l109.46,14.5s29.53,0,136.14-322.38c0,0,30.93-107.9,148.82-123.73,0,0,55.78,14.25,87.83,14.25l317.26-2.38,317.26,2.38c32,0,87.83-14.25,87.83-14.25,117.89,15.83,148.82,123.73,148.82,123.73,106.61,322.38,136.14,322.38,136.14,322.38l109.46-14.5c18.19,4.48,26.5,0,26.5,0C3199.59,1486.27,2873.22,595,2821.66,546.32Z"/><path class="cls-1" d="M2446.36,528.91l-.06-.3c.6-17-2.64-40.77-23.6-49.54-7.28-3.05-28.57-5.62-57.54-7.79-96.28-9.84-316.91-10.41-316.91-10.41h-.45s-220.63.57-316.91,10.41c-29,2.17-50.27,4.74-57.54,7.79-21,8.77-24.2,32.57-23.6,49.54,0,.1,0,.2-.07.3l.1.48a105.85,105.85,0,0,0,2.21,17.72l52.22,255.56q1.63,5.87,3.63,11.19A112,112,0,0,0,1718,834.93a106.93,106.93,0,0,0,26,29.1,110.63,110.63,0,0,0,34.7,18.12,119.88,119.88,0,0,0,15.93,4c2.53.46,5.11.87,7.78,1.21h491.27c2.66-.34,5.25-.75,7.78-1.21a119.88,119.88,0,0,0,15.93-4,110.63,110.63,0,0,0,34.7-18.12,106.74,106.74,0,0,0,26-29.1,111.54,111.54,0,0,0,10.17-21.07c1.32-3.55,2.54-7.28,3.63-11.19l52.22-255.56a105.85,105.85,0,0,0,2.21-17.72Z"/><path class="cls-1" d="M1449.18,658.32s-11.48-1.24-24-1.24-24,1.24-24,1.24-26.51,1.17-28.49,23.66l1.59,48.59a24.8,24.8,0,0,0,5.44,14.73l35,38.58a6.74,6.74,0,0,0,4.16,2.45,40.6,40.6,0,0,0,6.35.53,41.32,41.32,0,0,0,7.07-.67,4.91,4.91,0,0,0,3-1.79l34.52-38a28.88,28.88,0,0,0,6.33-17.17l1.55-47.22C1475.15,659.49,1449.18,658.32,1449.18,658.32Z"/><path class="cls-1" d="M1401.18,976.94s11.47,1.25,24,1.25,24-1.25,24-1.25,26.5-1.17,28.48-23.65l-1.59-48.6a24.79,24.79,0,0,0-5.43-14.73l-35-38.58a6.68,6.68,0,0,0-4.16-2.44,39.28,39.28,0,0,0-6.34-.53,41.49,41.49,0,0,0-7.08.66,5,5,0,0,0-3,1.79l-34.51,38a28.85,28.85,0,0,0-6.34,17.17l-1.55,47.23C1375.2,975.77,1401.18,976.94,1401.18,976.94Z"/><path class="cls-1" d="M1265.87,793.63s-1.25,11.48-1.25,24,1.25,24,1.25,24,1.17,26.51,23.65,28.49l48.6-1.6a24.73,24.73,0,0,0,14.73-5.43l38.58-35a6.68,6.68,0,0,0,2.44-4.16,39.42,39.42,0,0,0,.53-6.35,41.46,41.46,0,0,0-.66-7.07,5.06,5.06,0,0,0-1.79-3l-38-34.51a28.87,28.87,0,0,0-17.18-6.33l-47.22-1.55C1267,767.65,1265.87,793.63,1265.87,793.63Z"/><path class="cls-1" d="M1584.48,841.63s1.25-11.47,1.25-24-1.25-24-1.25-24-1.17-26.5-23.65-28.48l-48.6,1.59a24.79,24.79,0,0,0-14.72,5.43l-38.59,35a6.77,6.77,0,0,0-2.44,4.16,39.28,39.28,0,0,0-.53,6.34,41.21,41.21,0,0,0,.67,7.07,5,5,0,0,0,1.78,3l38,34.51a28.94,28.94,0,0,0,17.18,6.34l47.22,1.55C1583.31,867.61,1584.48,841.63,1584.48,841.63Z"/><circle class="cls-1" cx="1724.45" cy="1094.15" r="115.12"/><circle class="cls-1" cx="2369.53" cy="1093.15" r="115.12"/><circle class="cls-1" cx="2667.9" cy="672.1" r="60.53"/><circle class="cls-1" cx="2815.08" cy="819.27" r="60.53"/><circle class="cls-1" cx="2520.73" cy="819.27" r="60.53"/><polygon class="cls-1" points="2668.9 631.71 2631.85 693.69 2668.9 693.69 2705.96 693.69 2668.9 631.71"/><polygon class="cls-1" points="2520.72 787.44 2488.47 787.44 2488.47 851.13 2520.72 851.13 2552.98 851.13 2552.98 787.44 2520.72 787.44"/><circle class="cls-1" cx="2667.9" cy="966.45" r="60.53"/><line class="cls-1" x1="2637.04" y1="998.89" x2="2699.75" y2="936.19"/><line class="cls-1" x1="2699.75" y1="998.89" x2="2637.04" y2="936.19"/><circle class="cls-1" cx="2815.08" cy="819.27" r="37.58"/><path class="cls-1" d="M1306.92,530.22v-24s64.45-44.31,142-52.75,109.72,5,109.72,5a57.45,57.45,0,0,1,4.74,28.49S1402.82,497.78,1306.92,530.22Z"/><path class="cls-1" d="M2787.64,530.22v-24s-64.45-44.31-142-52.75-109.71,5-109.71,5a57.52,57.52,0,0,0-4.75,28.49S2691.74,497.78,2787.64,530.22Z"/><path class="cls-1" d="M1607.55,617.23h0l-9.67-43.31a21.52,21.52,0,0,0-1.8-8.07v0h0a21.62,21.62,0,0,0-39.59,17.37l8.73,41.78a21.42,21.42,0,0,0,1,5l0,.1h0a21.61,21.61,0,0,0,41.25-12.86Z"/><path class="cls-1" d="M2485.47,617.23h0l9.67-43.31a21.52,21.52,0,0,1,1.8-8.07v0h0a21.62,21.62,0,0,1,39.6,17.37L2527.81,625a21.43,21.43,0,0,1-1.06,5l0,.1h0a21.61,21.61,0,0,1-41.25-12.86Z"/><path class="cls-1" d="M2086.58,1188.78h-77.16a9.1,9.1,0,0,0,0,18.2h77.16a9.1,9.1,0,0,0,0-18.2Z"/><circle class="cls-1" cx="1724.45" cy="1094.15" r="69.96"/><circle class="cls-1" cx="2369.53" cy="1094.15" r="69.96"/><path class="cls-1" d="M1679.49,783s16.81,118.36,114.92,131h505.16s93.78-9.76,118-128.19"/><circle class="cls-1" cx="1974.8" cy="947.2" r="10.29"/><circle class="cls-1" cx="2009.97" cy="947.2" r="10.29"/><circle class="cls-1" cx="2048.51" cy="947.2" r="10.29"/><circle class="cls-1" cx="2083.78" cy="947.2" r="10.29"/><circle class="cls-1" cx="2119.04" cy="947.2" r="10.29"/><circle class="cls-1" cx="2102.02" cy="978.03" r="10.29"/><circle class="cls-1" cx="1992.53" cy="978.03" r="10.29"/><circle class="cls-1" cx="2028.63" cy="978.03" r="10.29"/><circle class="cls-1" cx="2065.33" cy="978.03" r="10.29"/><path class="cls-1" d="M2059.13,1055.48v21.79c15.1,6.58,21.66,0,21.66-15.46,0-15.85-1.34-18.3-17.81-24-6.48-2.19-22.76-7.4-31-8.94v88l19.44,6.17V1053c0-3.38,1.51-5.63,3.94-4.86C2058.5,1049,2059.13,1052.1,2059.13,1055.48Z"/><path class="cls-1" d="M2104.14,1105c2.24-8-6.19-16-11.57-17.77-5.74-1.92-12-2.15-32.17,1.93v12.4c8.66-2.08,17.11-3.51,19.41-3.74,2.64-.26,9.85,6.26.74,9.13l-20.15,5.61v11.29l28.39-7.62C2099,1112,2102.71,1110.05,2104.14,1105Z"/><path class="cls-1" d="M1979.14,1097.86c-2.24,8,6.19,16,11.57,17.77,5.73,1.92,12,2.15,32.17-1.94V1101.3c-8.66,2.07-17.12,3.5-19.42,3.73-2.64.27-9.85-6.26-.73-9.13l20.15-5.6V1079l-28.4,7.62C1984.32,1090.79,1980.56,1092.77,1979.14,1097.86Z"/><line class="cls-2" x1="1573.88" y1="538.05" x2="1573.88" y2="520.75"/><line class="cls-2" x1="1564.16" y1="540.2" x2="1556.07" y2="528.83"/><line class="cls-2" x1="1582.85" y1="540.2" x2="1590.56" y2="528.83"/><line class="cls-2" x1="2505.94" y1="531.38" x2="2532.87" y2="531.38"/><line class="cls-2" x1="2505.94" y1="521.21" x2="2532.87" y2="521.21"/><line class="cls-2" x1="2505.94" y1="541.55" x2="2532.87" y2="541.55"/><polyline class="cls-1" points="2668.61 401.72 2839.42 230.91 3072.64 230.91"/><polyline class="cls-1" points="1429.12 401.72 1256.58 229.18 1023.36 229.18"/><polyline class="cls-1" points="2043.9 664.15 2043.9 396.03 1885.13 237.25"/><polyline class="cls-1" points="1322.62 923.13 1230.71 1015.03 860.62 1015.03"/><polyline class="cls-1" points="2773.38 923.13 2865.29 1015.03 3154.78 1015.03"/><polyline class="cls-1" points="1609.71 1223.91 1402.92 1430.69 864.88 1430.69"/><polyline class="cls-1" points="2486.29 1223.91 2693.07 1430.69 3231.12 1430.69"/><polyline class="cls-1" points="2567.69 561.33 2585.02 544.5 3126.26 544.5"/><polyline class="cls-1" points="1528.31 561.33 1510.98 544.5 969.74 544.5"/><circle class="cls-3" cx="3208.23" cy="806.79" r="53.45"/><line class="cls-3" x1="3180.98" y1="835.44" x2="3236.35" y2="780.07"/><line class="cls-3" x1="3236.35" y1="835.44" x2="3180.98" y2="780.07"/><circle class="cls-3" cx="3208.67" cy="1084.95" r="27.85"/><circle class="cls-3" cx="3208.67" cy="1084.95" r="51.96"/><circle class="cls-3" cx="3208.67" cy="945.13" r="51.96"/><polygon class="cls-3" points="3208.67 921.39 3183.13 921.39 3183.13 971.83 3208.67 971.83 3234.21 971.83 3234.21 921.39 3208.67 921.39"/><circle class="cls-3" cx="3208.67" cy="1224.77" r="51.96"/><polygon class="cls-3" points="3208.67 1196.77 3180.06 1244.62 3208.67 1244.62 3237.28 1244.62 3208.67 1196.77"/><path class="cls-1" d="M822.23,1175.87s-4.33-.47-9.07-.47-9.07.47-9.07.47-10,.44-10.77,9l.6,18.37a9.36,9.36,0,0,0,2.05,5.57l13.22,14.59a2.52,2.52,0,0,0,1.57.92,15.09,15.09,0,0,0,2.4.2,15.94,15.94,0,0,0,2.67-.25,1.85,1.85,0,0,0,1.14-.68l13-14.38a10.81,10.81,0,0,0,2.4-6.49l.58-17.85C832.06,1176.31,822.23,1175.87,822.23,1175.87Z"/><path class="cls-1" d="M804.09,1296.34s4.33.47,9.07.47,9.07-.47,9.07-.47,10-.44,10.77-8.94l-.6-18.38a9.31,9.31,0,0,0-2-5.56l-13.22-14.59a2.54,2.54,0,0,0-1.57-.93,15.09,15.09,0,0,0-2.4-.2,15.94,15.94,0,0,0-2.67.25,1.9,1.9,0,0,0-1.14.68l-13.05,14.38a10.93,10.93,0,0,0-2.4,6.49l-.58,17.86C794.26,1295.9,804.09,1296.34,804.09,1296.34Z"/><path class="cls-4" d="M752.93,1227s-.48,4.34-.48,9.08.48,9.07.48,9.07.44,10,8.94,10.77l18.37-.6a9.34,9.34,0,0,0,5.57-2l14.59-13.22a2.52,2.52,0,0,0,.92-1.57,15.31,15.31,0,0,0,.2-2.4,15.07,15.07,0,0,0-.25-2.68,1.92,1.92,0,0,0-.67-1.14l-14.38-13a10.92,10.92,0,0,0-6.5-2.39l-17.85-.59C753.37,1217.21,752.93,1227,752.93,1227Z"/><path class="cls-1" d="M873.4,1245.18s.47-4.34.47-9.07-.47-9.08-.47-9.08-.45-10-8.95-10.77l-18.37.6a9.41,9.41,0,0,0-5.57,2.06l-14.59,13.21a2.57,2.57,0,0,0-.92,1.58,14.44,14.44,0,0,0,0,5.07,1.89,1.89,0,0,0,.67,1.14l14.38,13a11,11,0,0,0,6.5,2.4l17.85.58C873,1255,873.4,1245.18,873.4,1245.18Z"/><path class="cls-4" d="M822.23,733.73s-4.33-.47-9.07-.47-9.07.47-9.07.47-10,.44-10.77,8.94l.6,18.38a9.36,9.36,0,0,0,2.05,5.57l13.22,14.58a2.54,2.54,0,0,0,1.57.93,15.09,15.09,0,0,0,2.4.2,15.94,15.94,0,0,0,2.67-.25,1.85,1.85,0,0,0,1.14-.68L830,767a10.86,10.86,0,0,0,2.4-6.49l.58-17.86C832.06,734.17,822.23,733.73,822.23,733.73Z"/><path class="cls-1" d="M804.09,854.2s4.33.47,9.07.47,9.07-.47,9.07-.47,10-.44,10.77-8.94l-.6-18.38a9.36,9.36,0,0,0-2-5.57l-13.22-14.59a2.52,2.52,0,0,0-1.57-.92,15.09,15.09,0,0,0-2.4-.2,15.94,15.94,0,0,0-2.67.25,1.85,1.85,0,0,0-1.14.68L796.3,820.91a10.88,10.88,0,0,0-2.4,6.49l-.58,17.86C794.26,853.76,804.09,854.2,804.09,854.2Z"/><path class="cls-1" d="M752.93,784.89s-.48,4.34-.48,9.07.48,9.08.48,9.08.44,10,8.94,10.77l18.37-.6a9.41,9.41,0,0,0,5.57-2.06l14.59-13.21a2.57,2.57,0,0,0,.92-1.58,14.44,14.44,0,0,0-.05-5.07,1.92,1.92,0,0,0-.67-1.14l-14.38-13a10.92,10.92,0,0,0-6.5-2.39l-17.85-.59C753.37,775.07,752.93,784.89,752.93,784.89Z"/><path class="cls-1" d="M873.4,803s.47-4.34.47-9.08-.47-9.07-.47-9.07-.45-10-8.95-10.77l-18.37.6a9.28,9.28,0,0,0-5.57,2.06L825.92,790a2.55,2.55,0,0,0-.92,1.58,14.44,14.44,0,0,0,0,5.07,1.92,1.92,0,0,0,.67,1.14l14.38,13.05a10.92,10.92,0,0,0,6.5,2.39l17.85.59C873,812.86,873.4,803,873.4,803Z"/><path class="cls-1" d="M822.23,881.11s-4.33-.47-9.07-.47-9.07.47-9.07.47-10,.44-10.77,8.94l.6,18.38A9.36,9.36,0,0,0,796,914l13.22,14.58a2.49,2.49,0,0,0,1.57.93,15.09,15.09,0,0,0,2.4.2,15.94,15.94,0,0,0,2.67-.25,1.85,1.85,0,0,0,1.14-.68l13-14.38a10.84,10.84,0,0,0,2.4-6.49l.58-17.86C832.06,881.55,822.23,881.11,822.23,881.11Z"/><path class="cls-1" d="M804.09,1001.58s4.33.47,9.07.47,9.07-.47,9.07-.47,10-.44,10.77-8.94l-.6-18.38a9.36,9.36,0,0,0-2-5.57l-13.22-14.58a2.49,2.49,0,0,0-1.57-.93,15.09,15.09,0,0,0-2.4-.2,15.94,15.94,0,0,0-2.67.25,1.85,1.85,0,0,0-1.14.68L796.3,968.29a10.9,10.9,0,0,0-2.4,6.49l-.58,17.86C794.26,1001.14,804.09,1001.58,804.09,1001.58Z"/><path class="cls-1" d="M752.93,932.27s-.48,4.34-.48,9.07.48,9.08.48,9.08.44,10,8.94,10.77l18.37-.6a9.41,9.41,0,0,0,5.57-2.06l14.59-13.21a2.57,2.57,0,0,0,.92-1.58,14.44,14.44,0,0,0-.05-5.07,1.92,1.92,0,0,0-.67-1.14l-14.38-13a10.92,10.92,0,0,0-6.5-2.39l-17.85-.59C753.37,922.45,752.93,932.27,752.93,932.27Z"/><path class="cls-4" d="M873.4,950.42s.47-4.34.47-9.08-.47-9.07-.47-9.07-.45-10-8.95-10.77l-18.37.6a9.35,9.35,0,0,0-5.57,2.06l-14.59,13.21A2.57,2.57,0,0,0,825,939a14.44,14.44,0,0,0,0,5.07,1.92,1.92,0,0,0,.67,1.14l14.38,13.05a10.92,10.92,0,0,0,6.5,2.39l17.85.59C873,960.24,873.4,950.42,873.4,950.42Z"/><path class="cls-1" d="M822.23,1028.49s-4.33-.47-9.07-.47-9.07.47-9.07.47-10,.44-10.77,8.94l.6,18.38a9.36,9.36,0,0,0,2.05,5.57L809.19,1076a2.52,2.52,0,0,0,1.57.92,15.09,15.09,0,0,0,2.4.2,15.94,15.94,0,0,0,2.67-.25,1.85,1.85,0,0,0,1.14-.68l13-14.38a10.81,10.81,0,0,0,2.4-6.49l.58-17.86C832.06,1028.93,822.23,1028.49,822.23,1028.49Z"/><path class="cls-4" d="M804.09,1149s4.33.47,9.07.47,9.07-.47,9.07-.47,10-.44,10.77-8.94l-.6-18.38a9.36,9.36,0,0,0-2-5.57l-13.22-14.58a2.54,2.54,0,0,0-1.57-.93,15.09,15.09,0,0,0-2.4-.2,15.94,15.94,0,0,0-2.67.25,1.85,1.85,0,0,0-1.14.68l-13.05,14.38a10.93,10.93,0,0,0-2.4,6.49l-.58,17.86C794.26,1148.52,804.09,1149,804.09,1149Z"/><path class="cls-1" d="M752.93,1079.65s-.48,4.34-.48,9.08.48,9.07.48,9.07.44,10,8.94,10.77l18.37-.6a9.35,9.35,0,0,0,5.57-2.06l14.59-13.21a2.55,2.55,0,0,0,.92-1.58,14.44,14.44,0,0,0-.05-5.07,1.92,1.92,0,0,0-.67-1.14l-14.38-13.05a10.92,10.92,0,0,0-6.5-2.39l-17.85-.59C753.37,1069.83,752.93,1079.65,752.93,1079.65Z"/><path class="cls-1" d="M873.4,1097.8s.47-4.34.47-9.07-.47-9.08-.47-9.08-.45-10-8.95-10.77l-18.37.6a9.41,9.41,0,0,0-5.57,2.06l-14.59,13.21a2.57,2.57,0,0,0-.92,1.58,14.44,14.44,0,0,0,0,5.07,1.92,1.92,0,0,0,.67,1.14l14.38,13a10.92,10.92,0,0,0,6.5,2.39l17.85.59C873,1107.62,873.4,1097.8,873.4,1097.8Z"/><path class="cls-1" d="M1600.19,496.47s27,16.09,28.06,40.35l47,224.18s25.58,87.41-28,144c-10.25,10.84-135,159.82-177.23,253.71s-42.2,72.27-119.74,272.18c0,0-55.91,173.54-67,214.15s-15.78,52.22-34.8,72.27"/><path d="M1425.87,956.56l12.29-17.79a1.35,1.35,0,0,0-1.28-2H1412.3a1.34,1.34,0,0,0-1.28,2l12.29,17.79A1.6,1.6,0,0,0,1425.87,956.56Z"/><path d="M1423.31,682,1411,699.78a1.34,1.34,0,0,0,1.28,2h24.58a1.35,1.35,0,0,0,1.28-2L1425.87,682A1.6,1.6,0,0,0,1423.31,682Z"/><path d="M1553.23,813.85l-16-13.64c-.8-.68-1.83.12-1.83,1.42v27.28c0,1.31,1,2.11,1.83,1.42l16-13.63A2,2,0,0,0,1553.23,813.85Z"/><path d="M1296.12,819.06l16,13.63c.8.69,1.83-.11,1.83-1.42V804c0-1.3-1-2.1-1.83-1.42l-16,13.64A2,2,0,0,0,1296.12,819.06Z"/><path d="M3130.49,341.23v-58.6h26.41a17,17,0,0,1,7.64,1.74,20.21,20.21,0,0,1,6.06,4.54,21,21,0,0,1,4,6.35,18.79,18.79,0,0,1,1.45,7.18,20.56,20.56,0,0,1-.66,5.24,20.24,20.24,0,0,1-1.9,4.75,18.24,18.24,0,0,1-3,4,18.48,18.48,0,0,1-4,3l12.87,21.79h-15.27l-11.22-18.9H3144v18.9Zm13.54-30.7h12.38a5.08,5.08,0,0,0,4.12-2.27,9.28,9.28,0,0,0,1.74-5.82,8.19,8.19,0,0,0-2-5.78,5.81,5.81,0,0,0-4.3-2.14h-12Z"/><path d="M3183.7,341.23a49.8,49.8,0,0,1,.64-8.39,24.56,24.56,0,0,1,2.27-6.95,23.2,23.2,0,0,1,4.45-6,40.61,40.61,0,0,1,7.18-5.45l6.72-4a53.14,53.14,0,0,0,4.87-3.14,12.85,12.85,0,0,0,3-2.93,6,6,0,0,0,1-3.45,7.21,7.21,0,0,0-2.22-5.3,8.67,8.67,0,0,0-6.4-2.22,12,12,0,0,0-4.07.67,15.11,15.11,0,0,0-3.48,1.8,20,20,0,0,0-3,2.53,25.28,25.28,0,0,0-2.46,2.93l-8-10.19a21.45,21.45,0,0,1,3.43-3.14,31.08,31.08,0,0,1,5.24-3.19,35.81,35.81,0,0,1,6.67-2.48,30.32,30.32,0,0,1,7.83-1,25.83,25.83,0,0,1,8.43,1.28,17.88,17.88,0,0,1,6.26,3.61,15.41,15.41,0,0,1,3.89,5.56,18.33,18.33,0,0,1,1.34,7.05,16,16,0,0,1-1.2,6.38,19.81,19.81,0,0,1-3.06,4.95,24.05,24.05,0,0,1-4,3.75q-2.18,1.61-4.22,2.83l-3.8,2.37c-1.42.9-2.82,1.87-4.21,2.94a43.61,43.61,0,0,0-3.85,3.29,15.25,15.25,0,0,0-2.69,3.35h28.08v12.46Z"/><path class="cls-1" d="M3258.7,244.6a330.21,330.21,0,0,0-39.2-3.56c-38.7-.65-77.71-2-116.17,3.11l-3.17.45a5.59,5.59,0,0,0-4.79,5.27c-.58,12.45-1.36,49,5.73,96.6,8.07,42,37.1,55,57,62.52a60.39,60.39,0,0,0,42.62,0c19.91-7.49,49-20.54,57-62.52,7.1-47.61,6.31-84.15,5.73-96.6A5.58,5.58,0,0,0,3258.7,244.6Z"/><path class="cls-1" d="M3164.38,130.83c-62.28,2.45-66.75,52.34-69.52,76a14.28,14.28,0,0,0,14.38,15.8h140.21a14.25,14.25,0,0,0,14.4-15.65c-2.74-23.67-7.14-73.72-69.54-76.18Z"/><path d="M871.05,341.23v-58.6h13.54v46.71H913v11.89Z"/><path d="M917.24,341.23a48.72,48.72,0,0,1,.65-8.39,24.24,24.24,0,0,1,2.27-6.95,23.16,23.16,0,0,1,4.44-6,40.34,40.34,0,0,1,7.19-5.45q3.8-2.26,6.71-4a53.14,53.14,0,0,0,4.87-3.14,12.65,12.65,0,0,0,3-2.93,6,6,0,0,0,1-3.45,7.21,7.21,0,0,0-2.22-5.3,8.65,8.65,0,0,0-6.39-2.22,12,12,0,0,0-4.08.67,15.11,15.11,0,0,0-3.48,1.8,20,20,0,0,0-3,2.53,25.28,25.28,0,0,0-2.46,2.93l-8-10.19a21.89,21.89,0,0,1,3.43-3.14,31.08,31.08,0,0,1,5.24-3.19,35.81,35.81,0,0,1,6.67-2.48,30.32,30.32,0,0,1,7.83-1,25.83,25.83,0,0,1,8.43,1.28,17.88,17.88,0,0,1,6.26,3.61,15.29,15.29,0,0,1,3.89,5.56,18.33,18.33,0,0,1,1.34,7.05,16,16,0,0,1-1.2,6.38,19.52,19.52,0,0,1-3.06,4.95,24.05,24.05,0,0,1-4,3.75q-2.18,1.61-4.22,2.83l-3.8,2.37c-1.42.9-2.82,1.87-4.21,2.94a43.61,43.61,0,0,0-3.85,3.29,15.25,15.25,0,0,0-2.69,3.35H961.9v12.46Z"/><path d="M881.71,202.32V157.57H892v35.67h21.68v9.08Z"/><path d="M951.25,192.8v9.52H919.32V192.8h11.17V169a8.62,8.62,0,0,1-2.24,1.93,31.88,31.88,0,0,1-3.34,1.84,24.16,24.16,0,0,1-3.74,1.42,12.46,12.46,0,0,1-3.42.55v-9.83a8.94,8.94,0,0,0,3.46-.9,30.69,30.69,0,0,0,4-2.17,32.39,32.39,0,0,0,3.42-2.47,8.72,8.72,0,0,0,1.85-1.93h10.77V192.8Z"/><path class="cls-1" d="M901.65,132.48c-61.66,2.43-66.09,51.82-68.84,75.29a14.15,14.15,0,0,0,14.24,15.64H985.89a14.11,14.11,0,0,0,14.26-15.5c-2.71-23.44-7.07-73-68.86-75.43Z"/><path class="cls-1" d="M995.75,244.6a330.21,330.21,0,0,0-39.2-3.56c-38.7-.65-77.71-2-116.17,3.11l-3.17.45a5.59,5.59,0,0,0-4.79,5.27c-.58,12.45-1.36,49,5.73,96.6,8.07,42,37.1,55,57,62.52a60.39,60.39,0,0,0,42.62,0c19.91-7.49,49-20.54,57-62.52,7.1-47.61,6.31-84.15,5.73-96.6A5.58,5.58,0,0,0,995.75,244.6Z"/><path d="M3141.66,202.77v-45H3162a13.2,13.2,0,0,1,5.87,1.33,15.66,15.66,0,0,1,4.66,3.49,16.36,16.36,0,0,1,3.07,4.89,14.46,14.46,0,0,1,1.11,5.51,16.18,16.18,0,0,1-.5,4,15.91,15.91,0,0,1-1.46,3.65,14,14,0,0,1-5.39,5.39l9.89,16.74h-11.73l-8.63-14.52h-6.79v14.52Zm10.4-23.59h9.52a3.9,3.9,0,0,0,3.17-1.75,7.13,7.13,0,0,0,1.33-4.47,6.31,6.31,0,0,0-1.52-4.44,4.48,4.48,0,0,0-3.3-1.65h-9.2Z"/><path d="M3217,193.2v9.57h-32.12V193.2h11.23v-24a8.54,8.54,0,0,1-2.25,1.94,31.29,31.29,0,0,1-3.36,1.86,23.4,23.4,0,0,1-3.76,1.42,12.76,12.76,0,0,1-3.44.56v-9.89a9.06,9.06,0,0,0,3.48-.91,29.83,29.83,0,0,0,4-2.18,33,33,0,0,0,3.45-2.49,8.47,8.47,0,0,0,1.85-1.94H3207V193.2Z"/><path class="cls-1" d="M2496.56,496.47s-27,16.09-28.07,40.35L2421.55,761S2396,848.41,2449.5,905c10.26,10.84,135,159.82,177.23,253.71s42.2,72.27,119.74,272.18c0,0,55.91,173.54,67,214.15s15.78,52.22,34.79,72.27"/></svg>