<svg id="Layer_1" data-name="Layer 1" xmlns="http://www.w3.org/2000/svg" viewBox="0 0 512 512"><defs><style>.cls-1{fill:#fff;}.cls-2{fill:none;stroke:#fff;stroke-miterlimit:10;stroke-width:27px;}</style></defs><path class="cls-1" d="M179.94,301.29V203.4h22.61v78H250v19.86Z"/><path class="cls-1" d="M332.06,280.47v20.82H262.22V280.47h24.43V228.36a18.8,18.8,0,0,1-4.9,4.21,67.2,67.2,0,0,1-7.31,4,51.39,51.39,0,0,1-8.17,3.1,27.77,27.77,0,0,1-7.49,1.2v-21.5a19.39,19.39,0,0,0,7.57-2,65.51,65.51,0,0,0,8.77-4.73,73.84,73.84,0,0,0,7.49-5.42,18.26,18.26,0,0,0,4-4.22h23.56v77.4Z"/><path class="cls-2" d="M223.58,148.53C88.69,153.83,79,261.88,73,313.21c-2.13,18.22,12.37,34.21,31.15,34.21h303.7c18.65,0,33.27-15.8,31.18-33.9-5.92-51.27-15.46-159.68-150.62-165Z"/></svg>