<svg id="Layer_1" data-name="Layer 1" xmlns="http://www.w3.org/2000/svg" viewBox="0 0 512 512"><defs><style>.cls-1{fill:#fff;}.cls-2,.cls-3{fill:none;stroke:#fff;stroke-miterlimit:10;}.cls-2{stroke-width:20px;}.cls-3{stroke-width:15px;}</style></defs><path class="cls-1" d="M222,308.36V198.75h25.31v87.38h53.11v22.23Z"/><path class="cls-1" d="M86.83,145.94l-9.94-7.43L8.36,253.09,76.89,368.6l9.94-8.37c-21.28-29.17-34.06-66.48-34.06-107.14S65.55,175.11,86.83,145.94Z"/><path class="cls-1" d="M363.11,85.83l7.43-9.94L256,7.36,140.46,75.89l8.36,9.94C178,64.54,215.3,51.77,256,51.77S333.94,64.54,363.11,85.83Z"/><path class="cls-1" d="M428.2,363.61l9.94,7.43,68.53-114.57L438.14,141l-9.94,8.36c21.29,29.17,34.06,66.48,34.06,107.15S449.49,334.44,428.2,363.61Z"/><path class="cls-1" d="M147.89,428.31l-7.43,9.94L255,506.78l115.51-68.53-8.36-9.94C333,449.59,295.7,462.37,255,462.37S177.06,449.59,147.89,428.31Z"/><circle class="cls-2" cx="256" cy="256" r="174.64"/><circle class="cls-3" cx="256" cy="256" r="106.13"/></svg>