<svg id="Layer_1" data-name="Layer 1" xmlns="http://www.w3.org/2000/svg" viewBox="0 0 512 512"><defs><style>.cls-1{fill:#fff;}.cls-2,.cls-3{fill:none;stroke:#fff;stroke-miterlimit:10;}.cls-2{stroke-width:20px;}.cls-3{stroke-width:15px;}</style></defs><path class="cls-1" d="M214.8,308.55V198.79h49.47a31.9,31.9,0,0,1,14.3,3.24,37.94,37.94,0,0,1,11.36,8.51,40,40,0,0,1,7.5,11.9,35.48,35.48,0,0,1,2.7,13.45,38.09,38.09,0,0,1-4.79,18.71,33.24,33.24,0,0,1-5.64,7.49,33.86,33.86,0,0,1-7.5,5.65l24.12,40.81h-28.6l-21-35.4H240.15v35.4ZM240.15,251h23.19c3,0,5.57-1.41,7.73-4.25s3.25-6.47,3.25-10.9-1.24-8.14-3.71-10.82-5.16-4-8-4H240.15Z"/><path class="cls-1" d="M363.11,85.83l7.43-9.94L256,7.36,140.46,75.89l8.36,9.94C178,64.54,215.3,51.77,256,51.77S333.94,64.54,363.11,85.83Z"/><path class="cls-1" d="M147.89,428.31l-7.43,9.94L255,506.78l115.51-68.53-8.36-9.94C333,449.59,295.7,462.37,255,462.37S177.06,449.59,147.89,428.31Z"/><circle class="cls-2" cx="256" cy="256" r="174.64"/><circle class="cls-3" cx="256" cy="256" r="106.13"/></svg>