<svg id="Layer_1" data-name="Layer 1" xmlns="http://www.w3.org/2000/svg" viewBox="0 0 512 512"><defs><style>.cls-1{fill:#fff;}.cls-2{fill:none;stroke:#fff;stroke-miterlimit:10;stroke-width:20px;}</style></defs><path class="cls-1" d="M251.09,166c2.12,6.62,3.78,13.11,5.32,19.75s2.84,13.28,4,20a346.35,346.35,0,0,1,4.35,40.62,304,304,0,0,1-.83,41.13c-.13,1.72-.31,3.44-.51,5.15l-.59,5.15c-.51,3.42-.91,6.86-1.54,10.27-1.09,6.85-2.64,13.64-4.29,20.41L238.74,323c2-6.11,3.9-12.26,5.4-18.55.83-3.13,1.44-6.31,2.17-9.47l.92-4.78c.31-1.59.6-3.19.85-4.8a289.46,289.46,0,0,0,3.76-39A336,336,0,0,0,250.62,207c-.59-6.58-1.36-13.15-2.36-19.68s-2.17-13.11-3.66-19.39Z"/><path class="cls-1" d="M290.77,269.36a4.07,4.07,0,0,1,.64.54,3.41,3.41,0,0,1,.45.58,5,5,0,0,1,.47.93c.07.21.16.52.19.67s.06.32.08.49a9.08,9.08,0,0,1,.08,1.24c0,.65-.05,1.15-.09,1.63-.1.94-.21,1.78-.36,2.6-.29,1.63-.65,3.16-1.06,4.67-.81,3-1.77,5.94-2.84,8.81a127.16,127.16,0,0,1-7.65,16.66,105.47,105.47,0,0,1-10.32,15.66,59.27,59.27,0,0,1-6.86,7.35,36.31,36.31,0,0,1-4.39,3.47,26.14,26.14,0,0,1-5.87,3,18.92,18.92,0,0,1-4,1,16.16,16.16,0,0,1-4.79-.1,15.38,15.38,0,0,1-4.79-1.7A16.12,16.12,0,0,1,236,334a20.75,20.75,0,0,1-4.08-6,33,33,0,0,1-2-5.47,56.35,56.35,0,0,1-1.65-10c0-.4-.07-.8-.1-1.21l-.05-.78a.57.57,0,0,1,0-.13v0l0-.1,0-.23-.16-.91c-.26-1.29-.57-2.67-.87-4.07-2.52-11.26-5.22-22.8-6.92-34.57a3.19,3.19,0,0,1,5.92-2c3,5.21,5.6,10.52,8.11,15.9s4.86,10.79,7,16.43c.56,1.4,1.07,2.84,1.59,4.38l.39,1.22.09.3,0,.16.06.24.22,1,.47,2.36A51.67,51.67,0,0,0,246,317.7a16.91,16.91,0,0,0,1.23,2.73,4.3,4.3,0,0,0,.92,1.21c.05,0,0-.06-.17-.17a2.13,2.13,0,0,0-.65-.28c-.49-.11-.54,0-.11-.17a10.21,10.21,0,0,0,1.89-1.08c.77-.56,1.64-1.23,2.51-2s1.75-1.63,2.62-2.55,1.77-1.85,2.64-2.85c3.48-4,6.88-8.4,10.19-12.94s6.57-9.21,9.76-13.94c1.58-2.36,3.17-4.73,4.69-7.1.75-1.18,1.5-2.37,2.18-3.51.34-.56.68-1.13.94-1.61a4.42,4.42,0,0,1,.33-.53c0-.05.08,0,.13.15a1.74,1.74,0,0,0,.05.22c0,.05.07.27.13.4a4.44,4.44,0,0,0,.35.68,5.84,5.84,0,0,0,.38.46,2.81,2.81,0,0,0,.53.45,3.63,3.63,0,1,1,4.22-5.91Z"/><path class="cls-2" d="M127.63,376.88l-.63-.08c-1.53-.19-3.07-.43-4.59-.71a73.6,73.6,0,0,1-9.55-2.38,67.88,67.88,0,0,1-21.11-11,65.61,65.61,0,0,1-15.9-17.82,67.62,67.62,0,0,1-6.15-12.75c-.79-2.11-1.5-4.32-2.12-6.54l-.1-.34L40.28,192.08A64.59,64.59,0,0,1,39,182l-.34-1.68.24-1c-.23-16.83,6.29-28.85,18.44-33.93,3.34-1.4,9.87-3.06,32.91-4.79,50.05-5.1,161-5.44,165.65-5.45h.28c4.7,0,115.6.35,165.65,5.45,23,1.73,29.57,3.39,32.9,4.79,12.19,5.09,18.71,17.16,18.44,34l.2.93-.28,1.58a65.13,65.13,0,0,1-1.33,10.17l-27.2,133.13-.1.34c-.62,2.22-1.33,4.43-2.12,6.54a68.3,68.3,0,0,1-6.17,12.8,65.73,65.73,0,0,1-15.91,17.79,67.76,67.76,0,0,1-21.12,11,72.35,72.35,0,0,1-9.6,2.38c-1.43.27-3,.51-4.5.7l-.63.08Z"/></svg>