<svg id="Layer_1" data-name="Layer 1" xmlns="http://www.w3.org/2000/svg" viewBox="0 0 512 512"><defs><style>.cls-1{fill:none;stroke:#fff;stroke-miterlimit:10;stroke-width:20px;}.cls-2{fill:#fff;}</style></defs><path class="cls-1" d="M127.63,376.88l-.63-.08c-1.53-.19-3.07-.43-4.59-.71a73.6,73.6,0,0,1-9.55-2.38,67.88,67.88,0,0,1-21.11-11,65.61,65.61,0,0,1-15.9-17.82,67.62,67.62,0,0,1-6.15-12.75c-.79-2.11-1.5-4.32-2.12-6.54l-.1-.34L40.28,192.08A64.59,64.59,0,0,1,39,182l-.34-1.68.24-1c-.23-16.83,6.29-28.85,18.44-33.93,3.34-1.4,9.87-3.06,32.91-4.79,50.05-5.1,161-5.44,165.65-5.45h.28c4.7,0,115.6.35,165.65,5.45,23,1.73,29.57,3.39,32.9,4.79,12.19,5.09,18.71,17.16,18.44,34l.2.93-.28,1.58a65.13,65.13,0,0,1-1.33,10.17l-27.2,133.13-.1.34c-.62,2.22-1.33,4.43-2.12,6.54a68.3,68.3,0,0,1-6.17,12.8,65.73,65.73,0,0,1-15.91,17.79,67.76,67.76,0,0,1-21.12,11,72.35,72.35,0,0,1-9.6,2.38c-1.43.27-3,.51-4.5.7l-.63.08Z"/><path class="cls-2" d="M380.21,262.55c-4.86-1.56-10-3-15.08-4.25s-10.23-2.48-15.38-3.53q-15.47-3.22-31.12-5.27a434.31,434.31,0,0,0-62.78-3.7c-10.47.21-20.91.76-31.29,1.74-2.6.24-5.18.57-7.77.85l-3.88.44-3.87.55-7.72,1.13-7.68,1.35c-2.57.41-5.1,1-7.64,1.5s-5.09,1-7.61,1.63c-5,1.27-10.09,2.39-15,3.88-10,2.69-19.74,6.16-29.4,9.75l-6.76-18.83c10.46-3.3,21-6.44,31.65-8.75,5.3-1.3,10.69-2.22,16-3.28,2.68-.5,5.38-.87,8.07-1.31s5.38-.87,8.09-1.17l8.09-1,8.12-.77,4.06-.37,4.06-.26c2.71-.16,5.42-.36,8.13-.48,10.84-.47,21.67-.49,32.48-.16a444.43,444.43,0,0,1,64.27,7q15.87,2.92,31.49,7c5.21,1.34,10.38,2.83,15.53,4.39s10.21,3.24,15.39,5.2Z"/><path class="cls-2" d="M190.23,212.35l-2.1,1.37L186,215.2c-.73.48-1.45,1-2.16,1.51s-1.43,1-2.13,1.56c-1.43,1-2.81,2.12-4.22,3.15l-2.07,1.64c-.69.53-1.38,1.07-2,1.64q-8.18,6.63-15.72,13.88c-2.55,2.39-5,4.9-7.45,7.36-1.18,1.29-2.39,2.55-3.6,3.8-.65.65-1.13,1.2-1.65,1.76s-1,1.12-1.37,1.67a20.36,20.36,0,0,0-2,3,3.76,3.76,0,0,0-.45,1.28,3,3,0,0,0-.08-.39c-.05-.16-.11-.23-.08-.17a2.3,2.3,0,0,0,.48.46,7.55,7.55,0,0,0,1.14.74,21.62,21.62,0,0,0,3.55,1.51c1.37.45,2.85.86,4.4,1.23a88.91,88.91,0,0,0,9.84,1.65c6.8.84,13.85,1.18,21,1.43s14.6.94,21.9,1.71,14.61,1.76,21.91,3.24a3.19,3.19,0,0,1,0,6.26c-7.3,1.48-14.6,2.44-21.91,3.24s-14.59,1.4-21.93,1.71a204.4,204.4,0,0,1-22.74-.43A107.48,107.48,0,0,1,146.81,278a56.16,56.16,0,0,1-6.17-1.6,37.57,37.57,0,0,1-6.54-2.73,24.3,24.3,0,0,1-3.46-2.21,19.87,19.87,0,0,1-3.48-3.32,17.15,17.15,0,0,1-2.82-4.87,16.73,16.73,0,0,1-1-5.77,18.32,18.32,0,0,1,.74-5.12,21.22,21.22,0,0,1,.73-2.17c.27-.65.56-1.32.86-1.92a33.82,33.82,0,0,1,4-6.14c.71-.88,1.43-1.69,2.16-2.5s1.49-1.57,2.15-2.19q2.06-2,4.15-3.95c1.41-1.28,2.86-2.52,4.3-3.78s3-2.41,4.45-3.61a129.52,129.52,0,0,1,19.22-12.51,97,97,0,0,1,10.47-4.79c.9-.35,1.81-.68,2.72-1s1.83-.62,2.76-.91,1.87-.53,2.81-.78,1.87-.46,3-.67a3.66,3.66,0,0,1,2.7,6.65Z"/></svg>