<svg id="Layer_1" data-name="Layer 1" xmlns="http://www.w3.org/2000/svg" viewBox="0 0 512 512"><defs><style>.cls-1{fill:none;stroke:#fff;stroke-miterlimit:10;stroke-width:24px;}.cls-2{fill:#fff;}</style></defs><line class="cls-1" x1="231.93" y1="128.74" x2="228.35" y2="49.93"/><line class="cls-1" x1="188.08" y1="140.54" x2="148.91" y2="90.44"/><line class="cls-1" x1="273.22" y1="136.66" x2="305.96" y2="83.29"/><path class="cls-2" d="M351.54,379.42l0-.72-.11-.72c-2.72-17.62-11.93-59.81-20.84-100.61C324.13,247.85,318,220,315.65,206.86l-.14-.75-.24-.74c-14.89-46.71-60.24-59.5-97.33-48-19.2,6-35.25,17.83-45.18,33.42-11.42,17.91-13.94,39.08-7.28,61.2,2.28,7.74,8.9,39.1,15.31,69.44,10.28,48.64,17.24,81.14,20.18,89.3l.14.38c7.2,18,20.13,31.63,37.41,39.36a80.5,80.5,0,0,0,32.79,6.8,87.07,87.07,0,0,0,17.83-1.85C321.22,448.71,353,422.61,351.54,379.42Z"/></svg>