<svg id="Layer_1" data-name="Layer 1" xmlns="http://www.w3.org/2000/svg" viewBox="0 0 512 512"><defs><style>.cls-1{fill:none;}.cls-1,.cls-2{stroke:#fff;stroke-miterlimit:10;stroke-width:20px;}.cls-2{fill:#fff;}</style></defs><path class="cls-1" d="M282.11,82.71S269.62,81.36,256,81.36s-26.11,1.35-26.11,1.35-28.83,1.28-31,25.73l1.73,52.86a27,27,0,0,0,5.91,16l38,42A7.32,7.32,0,0,0,249.1,222a43.25,43.25,0,0,0,6.9.57,44.55,44.55,0,0,0,7.69-.72,5.41,5.41,0,0,0,3.28-1.94l37.54-41.37a31.36,31.36,0,0,0,6.89-18.68l1.69-51.37C310.36,84,282.11,82.71,282.11,82.71Z"/><path class="cls-2" d="M229.89,429.28s12.49,1.36,26.11,1.36,26.11-1.36,26.11-1.36,28.83-1.27,31-25.72l-1.73-52.86a27,27,0,0,0-5.91-16l-38-42a7.32,7.32,0,0,0-4.53-2.66,43.11,43.11,0,0,0-6.9-.58,44.41,44.41,0,0,0-7.69.73,5.41,5.41,0,0,0-3.28,1.94l-37.54,41.37a31.34,31.34,0,0,0-6.89,18.68l-1.69,51.37C201.64,428,229.89,429.28,229.89,429.28Z"/><path class="cls-1" d="M82.71,229.89S81.36,242.38,81.36,256s1.35,26.1,1.35,26.1,1.28,28.84,25.73,31l52.86-1.73a27,27,0,0,0,16-5.91l42-38A7.35,7.35,0,0,0,222,262.9a43.25,43.25,0,0,0,.57-6.9,44.55,44.55,0,0,0-.72-7.69,5.41,5.41,0,0,0-1.94-3.28l-41.37-37.54a31.34,31.34,0,0,0-18.68-6.89l-51.37-1.69C84,201.64,82.71,229.89,82.71,229.89Z"/><path class="cls-1" d="M429.29,282.1s1.35-12.48,1.35-26.1-1.35-26.11-1.35-26.11-1.28-28.83-25.73-31l-52.86,1.73a27,27,0,0,0-16,5.91l-42,38a7.32,7.32,0,0,0-2.66,4.53,43.25,43.25,0,0,0-.57,6.9,44.55,44.55,0,0,0,.72,7.69,5.41,5.41,0,0,0,1.94,3.28l41.37,37.54a31.41,31.41,0,0,0,18.68,6.89l51.37,1.69C428,310.36,429.29,282.1,429.29,282.1Z"/></svg>