<svg id="Layer_1" data-name="Layer 1" xmlns="http://www.w3.org/2000/svg" viewBox="0 0 512 512"><defs><style>.cls-1{fill:#fff;}</style></defs><path class="cls-1" d="M198.75,183.58l.19.23,38.06,42a17.31,17.31,0,0,0,10.5,6,52.76,52.76,0,0,0,8.5.7,55.13,55.13,0,0,0,9.45-.88,15.41,15.41,0,0,0,9.08-5.23l37.39-41.2.39-.46a41.64,41.64,0,0,0,9.09-24.61l1.68-51.37,0-.72-.08-.72c-2.88-25.84-27.33-33.9-40.15-34.59-2.08-.22-13.9-1.38-26.88-1.38s-24.79,1.16-26.88,1.38c-13.09.69-37.88,8.8-40.17,34.83l0,.6,1.75,53.44A37.12,37.12,0,0,0,198.75,183.58Z"/><path class="cls-1" d="M313.25,328.42l-.19-.24-38.06-42a17.31,17.31,0,0,0-10.5-6,52.79,52.79,0,0,0-8.5-.71,55.13,55.13,0,0,0-9.45.88,15.46,15.46,0,0,0-9.08,5.24l-37.39,41.2-.39.46a41.64,41.64,0,0,0-9.09,24.61L188.89,404l.08.71c2.88,25.85,27.33,33.9,40.15,34.6,2.08.21,13.9,1.38,26.88,1.38s24.79-1.16,26.88-1.38c13.09-.7,37.88-8.8,40.17-34.83l.05-.6-1.75-53.44A37.12,37.12,0,0,0,313.25,328.42Z"/><path class="cls-1" d="M231.82,264.51a52.79,52.79,0,0,0,.7-8.51,54.37,54.37,0,0,0-.88-9.46,15.39,15.39,0,0,0-5.23-9.07l-41.2-37.39-.46-.39a41.64,41.64,0,0,0-24.61-9.09l-51.37-1.68-.72,0-.71.08c-25.85,2.88-33.91,27.33-34.6,40.15-.22,2.07-1.38,13.89-1.38,26.88s1.16,24.79,1.38,26.87c.69,13.1,8.8,37.89,34.83,40.18l.6.05,53.44-1.75a37.12,37.12,0,0,0,22-8.1l.24-.19,42-38.06A17.29,17.29,0,0,0,231.82,264.51Z"/><path class="cls-1" d="M439.26,229.12c-.69-13.09-8.8-37.88-34.83-40.17l-.6,0-53.44,1.75a37.12,37.12,0,0,0-22,8.1l-.24.19-42,38.06a17.31,17.31,0,0,0-6,10.5,52.76,52.76,0,0,0-.7,8.5,54.14,54.14,0,0,0,.88,9.45,15.39,15.39,0,0,0,5.23,9.08l41.2,37.39.46.39a41.64,41.64,0,0,0,24.61,9.09l51.37,1.68.72,0,.71-.08c25.85-2.88,33.91-27.33,34.6-40.15.22-2.08,1.38-13.9,1.38-26.88S439.48,231.21,439.26,229.12Z"/></svg>