<svg id="Layer_1" data-name="Layer 1" xmlns="http://www.w3.org/2000/svg" viewBox="0 0 512 512"><defs><style>.cls-1{fill:#fff;fill-rule:evenodd;}</style></defs><path id="path-1" class="cls-1" d="M285.52,419.49V378.36l114.25-40.7c13-4.65,15-11.22,4.42-14.66s-29.56-2.47-42.54,2.2L285.52,352V309.33l4.39-1.49s22-7.78,52.93-11.21,68.81.47,98.55,11.74c33.5,10.59,37.28,26.2,28.77,36.94s-29.39,18.42-29.39,18.42M300.3,275.28V170.11c0-12.35-2.28-23.72-13.87-26.94-8.87-2.84-14.38,5.4-14.38,17.74V424.28l-71-22.54v-314c30.2,5.6,74.2,18.86,97.85,26.83C359,135.2,379.42,160.9,379.42,218.82,379.42,275.26,344.57,296.66,300.3,275.28ZM70.7,374.07c-34.4-9.69-40.13-29.88-24.45-41.51,14.49-10.73,39.13-18.81,39.13-18.81l101.85-36.22v41.29L113.94,345c-13,4.65-14.94,11.23-4.42,14.67s29.59,2.47,42.55-2.19l35.16-12.75V381.7c-2.23.4-4.72.8-7,1.18A230.36,230.36,0,0,1,70.7,374.07Z"/></svg>