<svg id="Layer_1" data-name="Layer 1" xmlns="http://www.w3.org/2000/svg" viewBox="0 0 512 512"><defs><style>.cls-1{fill:#fff;}</style></defs><path class="cls-1" d="M86.83,145.94l-9.94-7.43L8.36,253.09,76.89,368.6l9.94-8.37c-21.28-29.17-34.06-66.48-34.06-107.14S65.55,175.11,86.83,145.94Z"/><path class="cls-1" d="M256,83A173,173,0,1,0,429,256,173,173,0,0,0,256,83Zm0,289.17A116.13,116.13,0,1,1,372.13,256,116.27,116.27,0,0,1,256,372.13Z"/><path class="cls-1" d="M256,159.87A96.13,96.13,0,1,0,352.13,256,96.25,96.25,0,0,0,256,159.87Zm44.45,148.49H222V198.75h25.31v87.38h53.11Z"/></svg>