<svg id="Layer_1" data-name="Layer 1" xmlns="http://www.w3.org/2000/svg" viewBox="0 0 512 512"><defs><style>.cls-1{fill:none;stroke:#fff;stroke-miterlimit:10;stroke-width:20px;}.cls-2{fill:#fff;}</style></defs><line class="cls-1" x1="215.55" y1="92.38" x2="340.5" y2="92.38"/><line class="cls-1" x1="215.55" y1="58.78" x2="340.5" y2="58.78"/><line class="cls-1" x1="215.55" y1="125.99" x2="340.5" y2="125.99"/><path class="cls-2" d="M289.14,155.22c-17.38-3.64-35.36-1.88-50.62,4.95-17.28,7.73-30.21,21.34-37.41,39.36l-.14.38c-2.94,8.16-9.9,40.65-20.18,89.29-6.4,30.33-13,61.7-15.31,69.44-6.66,22.13-4.15,43.29,7.28,61.21,9.93,15.59,26,27.46,45.18,33.41a88.09,88.09,0,0,0,26,4c30,0,59.77-15.84,71.29-52l.24-.74.14-.75c2.39-13.1,8.48-41,14.93-70.53,8.9-40.79,18.11-83,20.83-100.6l.11-.71,0-.73C353,188,321.22,161.93,289.14,155.22Z"/></svg>