<svg id="Layer_1" data-name="Layer 1" xmlns="http://www.w3.org/2000/svg" viewBox="0 0 512 512"><defs><style>.cls-1{fill:#fff;}</style></defs><path class="cls-1" d="M216.85,198.09h-20v26.74h20.67q4,0,6.9-3.79a15.53,15.53,0,0,0,2.89-9.72q0-6.06-3.31-9.65T216.85,198.09Z"/><path class="cls-1" d="M408.41,122.94a21.37,21.37,0,0,0-18.24-20.12,567.67,567.67,0,0,0-66.88-6.06h-.14l-19.32-.35c-57.91-1.08-117.79-2.19-176.54,5.65l-10.41,1.39v.73a21.33,21.33,0,0,0-13.28,18.77c-1,22.63-2.21,83.87,9.69,163.71l.08.49c6.42,33.43,21.25,60.55,44.07,80.58,18.84,16.55,40.26,25.89,58.73,32.83a113,113,0,0,0,79.66,0c18.47-6.94,39.89-16.28,58.73-32.83,22.82-20,37.65-47.15,44.07-80.58l.08-.49C410.61,206.82,409.45,145.57,408.41,122.94Zm-178,153.18-18.75-31.57H196.87v31.57H174.26V178.24h44.11a28.34,28.34,0,0,1,12.75,2.89,33.94,33.94,0,0,1,10.14,7.58,35.78,35.78,0,0,1,6.68,10.62,31.54,31.54,0,0,1,2.42,12,34.2,34.2,0,0,1-1.11,8.76,33.72,33.72,0,0,1-3.17,7.92,29.84,29.84,0,0,1-11.72,11.72l21.51,36.4Zm107.37,0H263.13a83.13,83.13,0,0,1,1.08-14,40.7,40.7,0,0,1,3.8-11.61,38.41,38.41,0,0,1,7.43-10,67.29,67.29,0,0,1,12-9.11q6.35-3.78,11.23-6.62a88.93,88.93,0,0,0,8.12-5.25,21.17,21.17,0,0,0,5-4.9,10,10,0,0,0,1.7-5.76,12.09,12.09,0,0,0-3.71-8.86q-3.72-3.7-10.69-3.7a19.86,19.86,0,0,0-6.81,1.12,25,25,0,0,0-5.8,3,33.53,33.53,0,0,0-5,4.21,45.29,45.29,0,0,0-4.1,4.9l-13.31-17a35.47,35.47,0,0,1,5.73-5.25,53.38,53.38,0,0,1,8.74-5.33,60.16,60.16,0,0,1,11.15-4.13,50.45,50.45,0,0,1,13.08-1.63,42.69,42.69,0,0,1,14.09,2.15,29.78,29.78,0,0,1,10.44,6,25.68,25.68,0,0,1,6.51,9.28A30.68,30.68,0,0,1,336,205.43a26.63,26.63,0,0,1-2,10.66,32.42,32.42,0,0,1-5.11,8.26,40.44,40.44,0,0,1-6.73,6.27q-3.65,2.67-7.05,4.73l-6.34,4c-2.38,1.49-4.72,3.13-7.05,4.9a73.33,73.33,0,0,0-6.42,5.51,24.73,24.73,0,0,0-4.49,5.59h46.9Z"/></svg>