<svg id="Layer_1" data-name="Layer 1" xmlns="http://www.w3.org/2000/svg" viewBox="0 0 512 512"><defs><style>.cls-1{fill:#fff;}</style></defs><path class="cls-1" d="M483.14,178.37c0-20.33-8.94-35.69-24.58-42.24-4.95-2.07-12.94-3.8-35.89-5.52-50.7-5.15-161.79-5.48-166.53-5.49h-.31c-4.71,0-115.8.34-166.5,5.49-23,1.72-30.94,3.45-35.89,5.52-15.57,6.52-24.48,21.78-24.58,42l-.48,2,.64,3.16a75.76,75.76,0,0,0,1.48,10.89l27.19,133,.26,1c.69,2.47,1.48,4.92,2.35,7.28a78.18,78.18,0,0,0,7,14.55A75.64,75.64,0,0,0,85.6,370.55a77.67,77.67,0,0,0,24.19,12.67,80.42,80.42,0,0,0,10.8,2.7c1.7.31,3.43.58,5.15.8l1.26.16H385l1.27-.16c1.68-.21,3.43-.49,5-.77a79.9,79.9,0,0,0,10.92-2.71,77.53,77.53,0,0,0,24.19-12.64,75.36,75.36,0,0,0,18.3-20.46,77.67,77.67,0,0,0,7.07-14.64c.87-2.35,1.67-4.8,2.35-7.27l.19-.68L481.5,194.17A77,77,0,0,0,483,183.1l.53-2.93Zm-183.53,58a3.86,3.86,0,0,1-.09.49,5.07,5.07,0,0,1-.19.67,4.36,4.36,0,0,1-.46.93,3.08,3.08,0,0,1-.46.58,4,4,0,0,1-.63.54,3.63,3.63,0,1,1-4.22-5.91,2.87,2.87,0,0,0-.54.45,5.25,5.25,0,0,0-.37.46,4.44,4.44,0,0,0-.35.68c-.06.13-.11.35-.13.4l-.06.22c-.05.17-.08.2-.12.15a3.41,3.41,0,0,1-.33-.53c-.27-.48-.61-1.05-1-1.61-.68-1.14-1.42-2.33-2.18-3.51-1.51-2.37-3.1-4.74-4.69-7.1-3.19-4.73-6.46-9.39-9.75-13.94q-2.8-3.84-5.68-7.48c.54,3.1.92,6.22,1.39,9.33l.58,5.15c.21,1.71.39,3.43.52,5.15a304,304,0,0,1,.82,41.13,346.34,346.34,0,0,1-4.34,40.62c-1.13,6.7-2.43,13.36-4,20s-3.2,13.13-5.32,19.75L251.61,341c1.49-6.28,2.67-12.88,3.66-19.39s1.77-13.1,2.36-19.68a333.94,333.94,0,0,0,1.21-39.48,289.47,289.47,0,0,0-3.76-39c-.24-1.61-.53-3.21-.85-4.8l-.92-4.78c-.72-3.16-1.33-6.34-2.17-9.47-.22-.92-.46-1.84-.7-2.76l0,.1-.06.24-.05.16-.1.3-.39,1.22c-.52,1.54-1,3-1.58,4.38-2.16,5.64-4.54,11-7,16.43s-5.13,10.69-8.11,15.9a3.18,3.18,0,0,1-5.91-2c1.7-11.77,4.4-23.31,6.91-34.57.3-1.4.62-2.78.87-4.07l.16-.91.05-.23v-.14a.57.57,0,0,1,0-.13l0-.78c0-.41.05-.81.09-1.21a57.28,57.28,0,0,1,1.65-10,33.91,33.91,0,0,1,2-5.47,21.16,21.16,0,0,1,4.08-6,16.34,16.34,0,0,1,3.68-2.8,15.44,15.44,0,0,1,4.8-1.7,16.16,16.16,0,0,1,4.79-.1,19.07,19.07,0,0,1,4,1,26.36,26.36,0,0,1,5.87,3,37.11,37.11,0,0,1,4.39,3.47,60,60,0,0,1,6.86,7.35,106.26,106.26,0,0,1,10.32,15.66,127.1,127.1,0,0,1,7.64,16.66c1.08,2.87,2,5.79,2.85,8.81.4,1.51.77,3,1.06,4.67.14.82.26,1.66.35,2.6.05.48.09,1,.1,1.63A9.08,9.08,0,0,1,299.61,236.33Z"/></svg>