<svg id="Layer_1" data-name="Layer 1" xmlns="http://www.w3.org/2000/svg" viewBox="0 0 512 512"><defs><style>.cls-1{fill:none;stroke:#000;stroke-miterlimit:10;stroke-width:24px;}</style></defs><path d="M180.12,276.12V178.24h22.61v78h47.42v19.85Z"/><path d="M257.27,276.12a83.13,83.13,0,0,1,1.08-14,40.7,40.7,0,0,1,3.8-11.61,38.41,38.41,0,0,1,7.43-10,67.29,67.29,0,0,1,12-9.11q6.35-3.78,11.23-6.62a88.93,88.93,0,0,0,8.12-5.25,21.17,21.17,0,0,0,5-4.9,10,10,0,0,0,1.7-5.76,12.09,12.09,0,0,0-3.71-8.86q-3.72-3.7-10.69-3.7a19.86,19.86,0,0,0-6.81,1.12,25,25,0,0,0-5.8,3,33.53,33.53,0,0,0-5,4.21,45.29,45.29,0,0,0-4.1,4.9l-13.31-17a35.47,35.47,0,0,1,5.73-5.25,53.38,53.38,0,0,1,8.74-5.33,60.16,60.16,0,0,1,11.15-4.13,50.45,50.45,0,0,1,13.08-1.63A42.69,42.69,0,0,1,311,178.34a29.92,29.92,0,0,1,10.45,6,25.78,25.78,0,0,1,6.5,9.28,30.68,30.68,0,0,1,2.24,11.79,26.63,26.63,0,0,1-2,10.66,32.42,32.42,0,0,1-5.11,8.26,40.44,40.44,0,0,1-6.73,6.27q-3.65,2.67-7.05,4.73l-6.34,4c-2.38,1.49-4.72,3.13-7.05,4.9a73.33,73.33,0,0,0-6.42,5.51,24.73,24.73,0,0,0-4.49,5.59h46.9v20.81Z"/><path class="cls-1" d="M388.42,114.7a554.68,554.68,0,0,0-65.48-6c-64.64-1.09-129.81-3.38-194.06,5.19l-5.3.76a9.32,9.32,0,0,0-8,8.8c-1,20.8-2.28,81.85,9.58,161.38,13.47,70.13,62,91.93,95.24,104.44a101,101,0,0,0,71.2,0c33.27-12.51,81.77-34.31,95.25-104.44,11.85-79.53,10.53-140.58,9.57-161.38A9.32,9.32,0,0,0,388.42,114.7Z"/></svg>