<svg id="Layer_1" data-name="Layer 1" xmlns="http://www.w3.org/2000/svg" viewBox="0 0 512 512"><defs><style>.cls-1{fill:none;stroke:#000;stroke-miterlimit:10;stroke-width:27px;}</style></defs><path d="M174.08,301.29V203.4H218.2A28.41,28.41,0,0,1,231,206.3a33.9,33.9,0,0,1,10.13,7.58,35.61,35.61,0,0,1,6.69,10.62,31.53,31.53,0,0,1,2.41,12,34.56,34.56,0,0,1-1.1,8.75,34.05,34.05,0,0,1-3.17,7.93,29.84,29.84,0,0,1-11.72,11.72l21.51,36.4H230.19l-18.75-31.58H196.69v31.58ZM196.69,250h20.68c2.67,0,5-1.26,6.9-3.79a15.57,15.57,0,0,0,2.89-9.72q0-6.06-3.31-9.65c-2.2-2.39-4.6-3.58-7.17-3.58h-20Z"/><path d="M337.92,280.47v20.82H268.08V280.47h24.43V228.36a18.8,18.8,0,0,1-4.9,4.21,67.2,67.2,0,0,1-7.31,4,51.39,51.39,0,0,1-8.17,3.1,27.77,27.77,0,0,1-7.49,1.2v-21.5a19.39,19.39,0,0,0,7.57-2,65.51,65.51,0,0,0,8.77-4.73,73.84,73.84,0,0,0,7.49-5.42,18.26,18.26,0,0,0,4-4.22h23.56v77.4Z"/><path class="cls-1" d="M226.24,156.69C102.43,161.56,93.53,260.74,88,307.85c-2,16.72,11.35,31.41,28.59,31.41H395.37c17.12,0,30.54-14.51,28.62-31.12-5.44-47.06-14.19-146.57-138.25-151.45Z"/></svg>