<svg id="Layer_1" data-name="Layer 1" xmlns="http://www.w3.org/2000/svg" viewBox="0 0 512 512"><defs><style>.cls-1{fill:none;stroke:#000;stroke-miterlimit:10;stroke-width:20px;}</style></defs><path class="cls-1" d="M415.84,191.87H94.16A38,38,0,0,0,56.23,229.8v12.33a38,38,0,0,0,37.93,37.93h76V387.79a25.61,25.61,0,0,0,25.54,25.54H316.28a25.61,25.61,0,0,0,25.54-25.54V280.06h74a38,38,0,0,0,37.93-37.93V229.8A38,38,0,0,0,415.84,191.87Z"/><polygon points="173.87 98.67 255.67 167.2 338.13 98.67 173.87 98.67"/><path d="M197.06,316.7V237.31h35.11a22.54,22.54,0,0,1,10.12,2.3,26.09,26.09,0,0,1,8,6,28.51,28.51,0,0,1,5.26,8.5,25.73,25.73,0,0,1,1.9,9.56,26.41,26.41,0,0,1-3.86,14,22.14,22.14,0,0,1-10.45,9.11l18.11,29.86H243.91L227.7,290.09H212.49V316.7Zm15.43-40.14h19.35a8.16,8.16,0,0,0,4-1,10,10,0,0,0,3.19-2.74,13.83,13.83,0,0,0,2.13-4.08,15.82,15.82,0,0,0,.78-5,14.23,14.23,0,0,0-.9-5.14,13.09,13.09,0,0,0-2.4-4.08,10.91,10.91,0,0,0-3.47-2.69,9,9,0,0,0-4-.95H212.49Z"/><path d="M305.74,274.06A17.86,17.86,0,0,1,317,280.71,20.65,20.65,0,0,1,321.28,294a21.4,21.4,0,0,1-2.07,9.5,20.53,20.53,0,0,1-5.81,7.21,27.14,27.14,0,0,1-9.12,4.59,41.67,41.67,0,0,1-12.07,1.62,38.58,38.58,0,0,1-15-2.74,28,28,0,0,1-10.9-8l8.5-10.62a20.35,20.35,0,0,0,6.93,5.7,22.42,22.42,0,0,0,10.06,2q6.83,0,10.4-2.68c2.38-1.79,3.58-4.55,3.58-8.28a10.55,10.55,0,0,0-4.14-8.94q-4.14-3.13-12.52-3.13H286V269h3.46c4.63,0,8.2-1,10.74-3.08a9.69,9.69,0,0,0,3.8-7.88c0-3-1.05-5.33-3.13-6.82a13.74,13.74,0,0,0-8.16-2.23,18.23,18.23,0,0,0-9.23,2.34,18.52,18.52,0,0,0-6.65,6.6l-9.39-10.51a18.29,18.29,0,0,1,4.47-4.64,31.3,31.3,0,0,1,6.32-3.58,39.64,39.64,0,0,1,7.66-2.35,43.26,43.26,0,0,1,8.49-.83,35,35,0,0,1,10.4,1.45,26.41,26.41,0,0,1,8.11,4,17.92,17.92,0,0,1,5.25,6.21,17.62,17.62,0,0,1,1.85,8.1,20.06,20.06,0,0,1-1,6.38,18.37,18.37,0,0,1-2.91,5.48,17.45,17.45,0,0,1-4.52,4.13A15.77,15.77,0,0,1,305.74,274.06Z"/></svg>