<svg id="Layer_1" data-name="Layer 1" xmlns="http://www.w3.org/2000/svg" viewBox="0 0 512 512"><defs><style>.cls-1{fill:none;stroke:#000;stroke-miterlimit:10;stroke-width:20px;}</style></defs><path d="M251.61,341c1.49-6.28,2.67-12.88,3.66-19.39s1.77-13.1,2.36-19.68a333.94,333.94,0,0,0,1.21-39.48,289.47,289.47,0,0,0-3.76-39c-.24-1.61-.53-3.21-.85-4.8l-.92-4.78c-.72-3.16-1.33-6.34-2.17-9.47-1.49-6.29-3.42-12.44-5.4-18.55L264,180.47c1.65,6.77,3.21,13.56,4.29,20.41.64,3.41,1,6.85,1.55,10.27l.58,5.15c.21,1.71.39,3.43.52,5.15a304,304,0,0,1,.82,41.13,346.34,346.34,0,0,1-4.34,40.62c-1.13,6.7-2.43,13.36-4,20s-3.2,13.13-5.32,19.75Z"/><path d="M293.56,233.63a2.87,2.87,0,0,0-.54.45,5.25,5.25,0,0,0-.37.46,3.67,3.67,0,0,0-.35.68c-.06.13-.11.35-.13.4l-.06.22c-.05.17-.08.2-.12.15a3.41,3.41,0,0,1-.33-.53c-.27-.48-.61-1.05-1-1.61-.68-1.14-1.42-2.33-2.18-3.51-1.51-2.37-3.1-4.74-4.69-7.1-3.19-4.73-6.46-9.39-9.75-13.94s-6.71-9-10.19-12.94c-.87-1-1.76-2-2.64-2.85s-1.76-1.78-2.63-2.55a31.7,31.7,0,0,0-2.51-2,9.6,9.6,0,0,0-1.89-1.08c-.42-.19-.37-.06.12-.17a2.13,2.13,0,0,0,.65-.28c.16-.11.22-.2.17-.17a4.11,4.11,0,0,0-.92,1.21A16.91,16.91,0,0,0,253,191.2a50.3,50.3,0,0,0-1.92,7.24l-.47,2.36-.21.95-.06.24-.05.16-.1.3-.39,1.22c-.52,1.54-1,3-1.58,4.38-2.16,5.64-4.54,11-7,16.43s-5.13,10.69-8.11,15.9a3.18,3.18,0,0,1-5.91-2c1.7-11.77,4.4-23.31,6.91-34.57.3-1.4.62-2.78.87-4.07l.16-.91.05-.23v-.14a.57.57,0,0,1,0-.13l0-.78c0-.41.05-.81.09-1.21a57.28,57.28,0,0,1,1.65-10,33.91,33.91,0,0,1,2-5.47,21.16,21.16,0,0,1,4.08-6,16.34,16.34,0,0,1,3.68-2.8,15.44,15.44,0,0,1,4.8-1.7,16.16,16.16,0,0,1,4.79-.1,19.07,19.07,0,0,1,4,1,26.36,26.36,0,0,1,5.87,3,37.11,37.11,0,0,1,4.39,3.47,60,60,0,0,1,6.86,7.35,106.26,106.26,0,0,1,10.32,15.66,127.1,127.1,0,0,1,7.64,16.66c1.08,2.87,2,5.79,2.85,8.81.4,1.51.77,3,1.06,4.67.14.82.26,1.66.35,2.6.05.48.09,1,.1,1.63a9.08,9.08,0,0,1-.08,1.24,3.86,3.86,0,0,1-.09.49,5.07,5.07,0,0,1-.19.67,4.36,4.36,0,0,1-.46.93,3.08,3.08,0,0,1-.46.58,4,4,0,0,1-.63.54,3.63,3.63,0,1,1-4.22-5.91Z"/><path class="cls-1" d="M127.63,376.88l-.63-.08c-1.53-.19-3.07-.43-4.59-.71a73.6,73.6,0,0,1-9.55-2.38,67.88,67.88,0,0,1-21.11-11,65.61,65.61,0,0,1-15.9-17.82,67.62,67.62,0,0,1-6.15-12.75c-.79-2.11-1.5-4.32-2.12-6.54l-.1-.34L40.28,192.08A64.59,64.59,0,0,1,39,182l-.34-1.68.24-1c-.23-16.83,6.29-28.85,18.44-33.93,3.34-1.4,9.87-3.06,32.91-4.79,50.05-5.1,161-5.44,165.65-5.45h.28c4.7,0,115.6.35,165.65,5.45,23,1.73,29.57,3.39,32.9,4.79,12.19,5.09,18.71,17.16,18.44,34l.2.93-.28,1.58a65.13,65.13,0,0,1-1.33,10.17l-27.2,133.13-.1.34c-.62,2.22-1.33,4.43-2.12,6.54a68.3,68.3,0,0,1-6.17,12.8,65.73,65.73,0,0,1-15.91,17.79,67.76,67.76,0,0,1-21.12,11,72.35,72.35,0,0,1-9.6,2.38c-1.43.27-3,.51-4.5.7l-.63.08Z"/></svg>