<svg id="Layer_1" data-name="Layer 1" xmlns="http://www.w3.org/2000/svg" viewBox="0 0 512 512"><defs><style>.cls-1{fill:none;stroke:#000;stroke-miterlimit:10;stroke-width:20px;}</style></defs><path d="M129.34,249.85c5.18-1.95,10.23-3.6,15.39-5.19s10.32-3.06,15.53-4.39q15.6-4.11,31.49-7a444.43,444.43,0,0,1,64.27-7c10.81-.33,21.64-.31,32.48.16,2.71.12,5.42.32,8.13.48l4.06.25,4.06.37,8.12.77,8.09,1c2.71.3,5.4.74,8.09,1.17s5.39.81,8.07,1.31c5.35,1.06,10.74,2,16,3.28,10.69,2.3,21.19,5.44,31.65,8.75l-6.76,18.82c-9.66-3.59-19.4-7.06-29.4-9.74-4.95-1.5-10-2.61-15-3.88-2.52-.6-5.07-1.08-7.61-1.63s-5.07-1.09-7.64-1.5l-7.68-1.36L303,243.38l-3.87-.55-3.88-.44c-2.59-.28-5.17-.61-7.77-.86-10.38-1-20.82-1.52-31.29-1.73a432.89,432.89,0,0,0-62.78,3.69q-15.65,2.07-31.12,5.28c-5.15,1-10.28,2.25-15.38,3.52s-10.22,2.69-15.08,4.26Z"/><path d="M324.14,199.47c1.12.22,2,.42,3,.67s1.9.48,2.81.79,1.85.59,2.76.91,1.82.63,2.72,1a99,99,0,0,1,10.47,4.8,129.52,129.52,0,0,1,19.22,12.51c1.49,1.19,3,2.35,4.45,3.61s2.89,2.5,4.3,3.78,2.78,2.62,4.15,3.95c.66.62,1.41,1.41,2.15,2.19s1.45,1.61,2.16,2.5a33.47,33.47,0,0,1,4,6.14c.3.6.59,1.26.86,1.92a21,21,0,0,1,.73,2.16,18,18,0,0,1,.73,5.13,16.39,16.39,0,0,1-1,5.76,17,17,0,0,1-2.82,4.87,19.51,19.51,0,0,1-3.48,3.32,24.41,24.41,0,0,1-3.46,2.22,39.19,39.19,0,0,1-6.54,2.73,53.91,53.91,0,0,1-6.17,1.59,105.13,105.13,0,0,1-11.82,1.65,202,202,0,0,1-22.74.43c-7.34-.31-14.62-.93-21.93-1.7s-14.61-1.76-21.91-3.24a3.19,3.19,0,0,1,0-6.26c7.3-1.48,14.6-2.44,21.91-3.24s14.62-1.39,21.9-1.71,14.22-.59,21-1.44a88.93,88.93,0,0,0,9.84-1.64c1.55-.37,3-.78,4.4-1.24a20,20,0,0,0,3.55-1.51,7.55,7.55,0,0,0,1.14-.74,2.38,2.38,0,0,0,.48-.45c0-.07,0,0-.08.16a1.93,1.93,0,0,0-.08.4,3.61,3.61,0,0,0-.45-1.28,19.38,19.38,0,0,0-2-3c-.41-.55-.9-1.11-1.37-1.67s-1-1.11-1.65-1.77c-1.21-1.25-2.42-2.51-3.6-3.79-2.47-2.47-4.9-5-7.45-7.36q-7.56-7.25-15.72-13.89c-.67-.56-1.36-1.1-2.05-1.63l-2.07-1.64c-1.41-1-2.79-2.15-4.22-3.16-.7-.53-1.41-1.06-2.13-1.56s-1.43-1-2.16-1.5l-2.17-1.48-2.1-1.38-.32-.21a3.66,3.66,0,0,1,2.69-6.66Z"/><path class="cls-1" d="M127.63,376.88l-.63-.08c-1.53-.19-3.07-.43-4.59-.71a73.6,73.6,0,0,1-9.55-2.38,67.88,67.88,0,0,1-21.11-11,65.61,65.61,0,0,1-15.9-17.82,67.62,67.62,0,0,1-6.15-12.75c-.79-2.11-1.5-4.32-2.12-6.54l-.1-.34L40.28,192.08A64.59,64.59,0,0,1,39,182l-.34-1.68.24-1c-.23-16.83,6.29-28.85,18.44-33.93,3.34-1.4,9.87-3.06,32.91-4.79,50.05-5.1,161-5.44,165.65-5.45h.28c4.7,0,115.6.35,165.65,5.45,23,1.73,29.57,3.39,32.9,4.79,12.19,5.09,18.71,17.16,18.44,34l.2.93-.28,1.58a65.13,65.13,0,0,1-1.33,10.17l-27.2,133.13-.1.34c-.62,2.22-1.33,4.43-2.12,6.54a68.3,68.3,0,0,1-6.17,12.8,65.73,65.73,0,0,1-15.91,17.79,67.76,67.76,0,0,1-21.12,11,72.35,72.35,0,0,1-9.6,2.38c-1.43.27-3,.51-4.5.7l-.63.08Z"/></svg>