<svg id="Layer_1" data-name="Layer 1" xmlns="http://www.w3.org/2000/svg" viewBox="0 0 512 512"><defs><style>.cls-1,.cls-2{fill:none;stroke:#000;stroke-miterlimit:10;}.cls-1{stroke-width:10px;}.cls-2{stroke-width:20px;}</style></defs><path class="cls-1" d="M16.08,182.62l-.94-4.69.73-3.05c.46-23.83,11.56-42,30.71-50,6-2.52,14.6-4.44,38.86-6.27"/><path class="cls-1" d="M468.69,334.92c-.76,2.72-1.63,5.41-2.59,8a88.62,88.62,0,0,1-8,16.46,85.15,85.15,0,0,1-20.7,23.12,87.43,87.43,0,0,1-27.27,14.27,91.6,91.6,0,0,1-12.14,3c-1.77.33-3.66.62-5.5.85"/><path class="cls-2" d="M148.74,137.09c-22,.8-43.15,1.91-58.53,3.48-23,1.73-29.57,3.39-32.91,4.79-12.15,5.08-18.67,17.1-18.44,33.93l-.24,1L39,182a64.59,64.59,0,0,0,1.32,10.09l27.2,133.13.1.34c.62,2.22,1.33,4.43,2.12,6.54a67.62,67.62,0,0,0,6.15,12.75,65.61,65.61,0,0,0,15.9,17.82,67.88,67.88,0,0,0,21.11,11,73.6,73.6,0,0,0,9.55,2.38c1.52.28,3.06.52,4.59.71l.63.08H384.37l.63-.08c1.53-.19,3.07-.43,4.5-.7a72.35,72.35,0,0,0,9.6-2.38,67.76,67.76,0,0,0,21.12-11,65.73,65.73,0,0,0,15.91-17.79,68.3,68.3,0,0,0,6.17-12.8c.79-2.11,1.5-4.32,2.12-6.54l.1-.34,27.2-133.13a65.13,65.13,0,0,0,1.33-10.17l.28-1.58-.2-.93c.27-16.88-6.25-29-18.44-34-3.33-1.4-9.86-3.06-32.9-4.79-13.11-1.34-30.41-2.34-48.88-3.11"/><path d="M143.09,82.27l-8.16,13,125.79,89.38L387.54,95.24l-9.18-13c-32,27.76-73,44.42-117.64,44.42S175.11,110,143.09,82.27Z"/></svg>