<svg id="Layer_1" data-name="Layer 1" xmlns="http://www.w3.org/2000/svg" viewBox="0 0 512 512"><defs><style>.cls-1{fill:#fff;}</style></defs><path class="cls-1" d="M452.43,312l-.37-3.25c-3.11-27.21-7.81-68.32-29.63-104.08-26.69-43.75-71.61-67.17-133.5-69.6H223.05c-61.79,2.43-106.66,25.78-133.36,69.42C67.86,240.15,63.1,281.23,60,308.41l-.37,3.23a43.89,43.89,0,0,0,10.83,34.23,45.12,45.12,0,0,0,33.73,15.05h303.7a45.25,45.25,0,0,0,33.79-15.07A43.45,43.45,0,0,0,452.43,312ZM250,301.29h-70V203.4h22.61v78H250Zm82.08,0H262.22V280.47h24.43V228.36a18.8,18.8,0,0,1-4.9,4.21,67.2,67.2,0,0,1-7.31,4,51.39,51.39,0,0,1-8.17,3.1,27.77,27.77,0,0,1-7.49,1.2v-21.5a19.39,19.39,0,0,0,7.57-2,65.51,65.51,0,0,0,8.77-4.73,73.84,73.84,0,0,0,7.49-5.42,18.26,18.26,0,0,0,4-4.22h23.56v77.4h21.85Z"/></svg>