<svg id="Layer_1" data-name="Layer 1" xmlns="http://www.w3.org/2000/svg" viewBox="0 0 512 512"><defs><style>.cls-1{fill:#fff;}</style></defs><path class="cls-1" d="M363.11,85.83l7.43-9.94L256,7.36,140.46,75.89l8.36,9.94C178,64.54,215.3,51.77,256,51.77S333.94,64.54,363.11,85.83Z"/><path class="cls-1" d="M147.89,428.31l-7.43,9.94L255,506.78l115.51-68.53-8.36-9.94C333,449.59,295.7,462.37,255,462.37S177.06,449.59,147.89,428.31Z"/><path class="cls-1" d="M256,83A173,173,0,1,0,429,256,173,173,0,0,0,256,83Zm0,289.17A116.13,116.13,0,1,1,372.13,256,116.27,116.27,0,0,1,256,372.13Z"/><path class="cls-1" d="M256,159.87A96.13,96.13,0,1,0,352.13,256,96.25,96.25,0,0,0,256,159.87Zm44.45,148.49H222V198.75h25.31v87.38h53.11Z"/></svg>