<svg id="Layer_1" data-name="Layer 1" xmlns="http://www.w3.org/2000/svg" viewBox="0 0 512 512"><defs><style>.cls-1{fill:#fff;}</style></defs><path class="cls-1" d="M86.83,145.94l-9.94-7.43L8.36,253.09,76.89,368.6l9.94-8.37c-21.28-29.17-34.06-66.48-34.06-107.14S65.55,175.11,86.83,145.94Z"/><path class="cls-1" d="M256,83A173,173,0,1,0,429,256,173,173,0,0,0,256,83Zm0,289.17A116.13,116.13,0,1,1,372.13,256,116.27,116.27,0,0,1,256,372.13Z"/><path class="cls-1" d="M256,159.87A96.13,96.13,0,1,0,352.13,256,96.25,96.25,0,0,0,256,159.87Zm21.72,148.68-21-35.4H240.15v35.4H214.8V198.79h49.47a31.9,31.9,0,0,1,14.3,3.24,37.94,37.94,0,0,1,11.36,8.51,40,40,0,0,1,7.5,11.9,35.48,35.48,0,0,1,2.7,13.45,38.09,38.09,0,0,1-4.79,18.71,33.24,33.24,0,0,1-5.64,7.49,33.86,33.86,0,0,1-7.5,5.65l24.12,40.81Z"/><path class="cls-1" d="M262.57,221.05H240.15v30h23.19c3,0,5.57-1.41,7.73-4.25s3.25-6.47,3.25-10.9-1.24-8.14-3.71-10.82S265.45,221.05,262.57,221.05Z"/></svg>