<svg id="Layer_1" data-name="Layer 1" xmlns="http://www.w3.org/2000/svg" viewBox="0 0 512 512"><defs><style>.cls-1{fill:#fff;}</style></defs><path class="cls-1" d="M483.14,178.37c0-20.33-8.94-35.69-24.58-42.24-4.95-2.07-12.94-3.8-35.89-5.52-50.7-5.15-161.79-5.48-166.53-5.49h-.31c-4.71,0-115.79.34-166.5,5.49-23,1.72-30.94,3.45-35.89,5.52-15.57,6.52-24.48,21.78-24.58,42l-.48,2,.64,3.16a75.76,75.76,0,0,0,1.48,10.89l27.19,133,.26,1c.69,2.47,1.48,4.92,2.35,7.28a78.18,78.18,0,0,0,7,14.55A75.64,75.64,0,0,0,85.6,370.55a77.67,77.67,0,0,0,24.19,12.67,80.42,80.42,0,0,0,10.8,2.7c1.7.31,3.43.58,5.15.8l1.26.16H385l1.27-.16c1.69-.21,3.43-.49,5-.77a79.9,79.9,0,0,0,10.92-2.71,77.53,77.53,0,0,0,24.19-12.64,75.36,75.36,0,0,0,18.3-20.46,77.67,77.67,0,0,0,7.07-14.64c.87-2.35,1.67-4.8,2.35-7.27l.19-.68L481.5,194.17A77,77,0,0,0,483,183.1l.53-2.93Zm-95.48,78.9a17,17,0,0,1-2.82,4.87,19.51,19.51,0,0,1-3.48,3.32,24.41,24.41,0,0,1-3.46,2.22,39.19,39.19,0,0,1-6.54,2.73,53.91,53.91,0,0,1-6.17,1.59,105.13,105.13,0,0,1-11.82,1.65,202,202,0,0,1-22.74.43c-7.34-.31-14.62-.93-21.93-1.7s-14.61-1.76-21.91-3.24a3.19,3.19,0,0,1,0-6.26c7.3-1.48,14.6-2.44,21.91-3.24s14.62-1.39,21.9-1.71,14.22-.59,21-1.44q3.19-.36,6.24-.92c-3-1-6.11-1.87-9.21-2.7-4.95-1.5-10-2.61-15-3.88-2.52-.6-5.07-1.08-7.61-1.63s-5.07-1.09-7.64-1.5l-7.68-1.36L303,243.38l-3.87-.55-3.88-.44c-2.59-.28-5.17-.61-7.77-.86-10.38-1-20.82-1.52-31.29-1.73a432.89,432.89,0,0,0-62.78,3.69q-15.65,2.07-31.12,5.28c-5.15,1-10.28,2.25-15.38,3.52s-10.22,2.69-15.08,4.26l-2.45-6.7c5.18-1.95,10.23-3.6,15.39-5.19s10.32-3.06,15.53-4.39q15.6-4.11,31.49-7a444.43,444.43,0,0,1,64.27-7c10.81-.33,21.64-.31,32.48.16,2.71.12,5.42.32,8.13.48l4.06.25,4.06.37,8.12.77,8.09,1c2.71.3,5.4.74,8.09,1.17s5.39.81,8.07,1.31c5.35,1.06,10.74,2,16,3.28,1.65.35,3.28.73,4.92,1.13q-1.81-1.83-3.69-3.59-7.56-7.25-15.72-13.89c-.67-.56-1.36-1.1-2.05-1.63l-2.07-1.64c-1.41-1-2.79-2.15-4.22-3.16-.7-.53-1.41-1.06-2.13-1.56s-1.43-1-2.16-1.5l-2.17-1.48-2.1-1.38-.32-.21a3.66,3.66,0,0,1,2.69-6.66c1.12.22,2,.42,3,.67s1.9.48,2.81.79,1.85.59,2.76.91,1.82.63,2.72,1a99,99,0,0,1,10.47,4.8,129.52,129.52,0,0,1,19.22,12.51c1.49,1.19,3,2.35,4.45,3.61s2.89,2.5,4.3,3.78,2.78,2.62,4.15,3.95c.66.62,1.41,1.41,2.15,2.19s1.45,1.61,2.16,2.5a33.47,33.47,0,0,1,4,6.14c.3.6.59,1.26.86,1.92a21,21,0,0,1,.73,2.16,18,18,0,0,1,.73,5.13A16.39,16.39,0,0,1,387.66,257.27Z"/></svg>